<svg width="150" height="50" viewBox="0 0 150 50" fill="none" xmlns="http://www.w3.org/2000/svg">
<path fill-rule="evenodd" clip-rule="evenodd" d="M25 6H125C135.493 6 144 14.5066 144 25C144 35.4934 135.493 44 125 44H25C14.5066 44 6 35.4934 6 25C6 14.5066 14.5066 6 25 6ZM0 25C0 11.1929 11.1929 0 25 0H125C138.807 0 150 11.1929 150 25C150 38.8071 138.807 50 125 50H25C11.1929 50 0 38.8071 0 25ZM24.176 25.264L25.312 21.696H25.376L26.512 25.264H24.176ZM23.968 18.576L20.208 29.328H22.928L23.6 27.2H27.12L27.84 29.328H30.912L27.184 18.576H23.968ZM37.381 25.408C37.381 27.184 36.805 27.616 35.829 27.616C35.365 27.616 34.933 27.472 34.693 27.312V23.344C34.933 23.184 35.365 23.024 35.925 23.024C36.853 23.024 37.381 23.44 37.381 25.152V25.408ZM31.973 21.088V31.728H34.693V29.184C34.997 29.312 35.525 29.472 36.357 29.472C38.613 29.472 40.165 28.336 40.165 25.088V24.896C40.165 21.888 38.661 20.944 37.061 20.944C35.957 20.944 35.221 21.248 34.677 21.776H34.597V21.088H31.973ZM46.9591 25.408C46.9591 27.184 46.3831 27.616 45.4071 27.616C44.9431 27.616 44.5111 27.472 44.2711 27.312V23.344C44.5111 23.184 44.9431 23.024 45.5031 23.024C46.4311 23.024 46.9591 23.44 46.9591 25.152V25.408ZM41.5511 21.088V31.728H44.2711V29.184C44.5751 29.312 45.1031 29.472 45.9351 29.472C48.1911 29.472 49.7431 28.336 49.7431 25.088V24.896C49.7431 21.888 48.2391 20.944 46.6391 20.944C45.5351 20.944 44.7991 21.248 44.2551 21.776H44.1751V21.088H41.5511ZM59.5884 27.2H58.5164V20.704H59.5084C60.9804 20.704 61.8284 21.36 61.8284 23.648V24.192C61.8284 26.448 61.0924 27.2 59.5884 27.2ZM55.5084 18.576V29.328H59.6524C62.9964 29.328 64.9964 27.696 64.9964 24.064V23.696C64.9964 20 62.9964 18.576 59.6364 18.576H55.5084ZM71.7217 25.376C71.7217 27.088 71.1937 27.6 70.3298 27.6C69.4818 27.6 68.8897 27.216 68.8897 25.312V25.008C68.8897 23.328 69.4017 22.784 70.2978 22.784C71.1298 22.784 71.7217 23.136 71.7217 25.088V25.376ZM66.1058 25.328C66.1058 27.968 67.5618 29.472 70.3138 29.472C72.6978 29.472 74.5218 28.08 74.5218 25.248V25.056C74.5218 22.368 73.0498 20.928 70.3138 20.928C67.9137 20.928 66.1058 22.32 66.1058 25.136V25.328ZM75.3516 21.072L77.5116 29.328H80.0716L81.3836 24.688H81.4316L82.7116 29.328H85.2556L87.4316 21.072H85.0796L83.9756 25.856H83.9116L82.6156 21.072H80.5836L79.3196 25.856H79.2556L78.1356 21.072H75.3516ZM88.6136 21.072V29.312H91.3496V23.312C91.6696 23.184 92.1816 23.04 92.6136 23.04C93.3656 23.04 93.6536 23.264 93.6536 23.936V29.312H96.3736V23.184C96.3736 21.552 95.4776 20.928 93.9416 20.928C92.9016 20.928 92.0376 21.232 91.3176 21.792H91.2376V21.072H88.6136ZM98.0679 17.872V29.312H100.804V17.872H98.0679ZM107.831 25.376C107.831 27.088 107.303 27.6 106.439 27.6C105.591 27.6 104.999 27.216 104.999 25.312V25.008C104.999 23.328 105.511 22.784 106.407 22.784C107.239 22.784 107.831 23.136 107.831 25.088V25.376ZM102.215 25.328C102.215 27.968 103.671 29.472 106.423 29.472C108.807 29.472 110.631 28.08 110.631 25.248V25.056C110.631 22.368 109.159 20.928 106.423 20.928C104.023 20.928 102.215 22.32 102.215 25.136V25.328ZM117.141 27.12C116.885 27.312 116.485 27.488 115.973 27.488C115.061 27.488 114.469 27.056 114.469 25.296V25.056C114.469 23.296 115.045 22.784 116.005 22.784C116.517 22.784 116.917 22.928 117.141 23.072V27.12ZM111.669 25.408C111.669 28.32 113.205 29.472 114.933 29.472C115.941 29.472 116.677 29.216 117.237 28.688H117.333L117.509 29.312H119.845V17.872H117.141V21.28C116.869 21.12 116.293 20.928 115.413 20.928C113.237 20.928 111.669 22.128 111.669 25.232V25.408ZM123.967 24.352C124.079 23.072 124.655 22.72 125.263 22.72C126.063 22.72 126.463 23.152 126.463 24.352H123.967ZM121.215 25.28C121.215 28 122.639 29.472 125.567 29.472C127.087 29.472 128.111 29.104 128.735 28.736V27.056C128.095 27.312 127.247 27.552 126.271 27.552C124.879 27.552 124.143 27.184 123.983 25.888H129.071V25.184C129.071 22.48 128.031 20.928 125.263 20.928C122.799 20.928 121.215 22.528 121.215 25.072V25.28Z" fill="#FF7D35"/>
</svg>
