<svg width="64" height="50" viewBox="0 0 64 50" fill="none" xmlns="http://www.w3.org/2000/svg">
<path fill-rule="evenodd" clip-rule="evenodd" d="M8.40882 0.0371094L13.0109 3.88694L10.4773 6.91551H22.2445C31.081 6.91551 38.2445 14.079 38.2445 22.9155V23.1873C43.1505 22.3553 48.136 21.8923 52.27 21.9135C59.3719 21.9498 63.0564 28.1569 63.0564 34.0535V49.962H57.0564V34.0535C57.0564 30.1882 54.8989 27.927 52.2392 27.9134C48.1596 27.8925 43.1125 28.3976 38.2445 29.2787V34.5223C38.3837 36.9822 37.853 41.0787 34.5241 43.3107C30.9639 45.6979 26.0003 44.8117 19.9889 41.2385C18.2893 40.2283 16.7625 38.9302 16.0425 37.1862C15.2179 35.1888 15.7031 33.2705 16.7358 31.8012C17.6757 30.464 19.098 29.417 20.5532 28.586C22.0551 27.7285 23.8412 26.9623 25.7645 26.2841C27.7361 25.5888 29.9335 24.9581 32.2445 24.4057V22.9155C32.2445 17.3927 27.7673 12.9155 22.2445 12.9155H11.2652L12.8382 14.4989L8.58151 18.7275L0 10.0889L8.40882 0.0371094ZM32.2445 30.5886C30.6497 31.0031 29.1379 31.4566 27.7599 31.9426C26.0465 32.5468 24.6177 33.1745 23.5283 33.7965C22.5595 34.3496 22.0203 34.808 21.757 35.1096C21.945 35.311 22.3239 35.6466 23.0546 36.0809C28.6867 39.4286 30.7231 38.6354 31.1827 38.3273C31.8258 37.8961 32.3679 36.595 32.2509 34.8093L32.2445 34.7113V30.5886Z" fill="#3D2722"/>
</svg>
