<svg width="741" height="148" viewBox="0 0 741 148" fill="none" xmlns="http://www.w3.org/2000/svg">
<ellipse cx="22" cy="94.5" rx="20" ry="21.5" fill="#54352F"/>
<path fill-rule="evenodd" clip-rule="evenodd" d="M8.5836 81.6282C8.55783 82.5458 8.58174 83.4854 8.6501 84.4362C8.91175 88.0761 10.073 91.415 11.0463 94.189C11.4691 95.394 12.7849 96.0267 13.9852 95.6023C15.1855 95.1779 15.8159 93.857 15.3931 92.652C14.4009 89.8243 13.4577 87.0389 13.2467 84.1033C13.0866 81.8765 13.227 79.9274 13.6303 78.3595C16.075 77.2576 18.5572 76.7195 21.3255 76.1193C22.1 75.9514 22.897 75.7786 23.7217 75.5873C24.3869 75.433 24.9177 75.0039 25.2226 74.4471C28.4673 75.3722 31.6983 77.0298 34.6704 79.4748C36.7866 81.2158 38.7943 83.3642 40.0825 86.4926C41.5438 90.0412 41.7821 94.5774 40.7959 98.7318C38.9492 106.511 34.5924 110.996 30.4202 112.543C24.5224 114.73 17.8413 112.479 12.076 106.596C10.0428 104.521 7.47861 101.17 5.9441 97.318C4.41678 93.4846 3.98458 89.3737 5.7986 85.4851C6.54815 83.8784 7.50614 82.6395 8.5836 81.6282ZM9.89928 75.0652C9.78639 75.1279 9.67359 75.1919 9.56089 75.257C6.77427 76.8677 3.6396 79.2048 1.62509 83.5231C-0.901971 88.9401 -0.160174 94.4547 1.66515 99.0361C3.4833 103.599 6.45036 107.452 8.79077 109.84C15.2922 116.474 23.8034 119.928 32.017 116.883C37.924 114.692 43.1527 108.76 45.2788 99.8043C46.4554 94.8482 46.2261 89.3018 44.3415 84.7252C42.6652 80.6543 40.0595 77.9269 37.5915 75.8965C33.0103 72.1277 27.8233 69.91 22.6758 69.19C19.9639 68.8107 16.7969 68.8767 13.8252 70.5444C11.9902 71.5741 10.7227 73.1929 9.89928 75.0652Z" fill="#54352F"/>
<path d="M24.426 78.346C24.774 78.694 26.224 79.39 25.528 79.738C25.876 80.086 25.876 81.884 26.92 81.536L26.572 82L26.92 82.232L25.18 82.58C25.876 82.928 25.876 83.624 26.92 82.928C27.268 83.276 26.92 83.276 26.92 83.972C26.572 84.668 27.964 84.32 27.616 85.016C27.268 85.016 26.224 85.712 25.528 85.712C25.876 86.06 26.572 85.712 26.572 86.408L26.224 86.756L27.616 87.452C27.268 87.452 26.572 87.452 26.92 88.148C26.572 88.148 26.224 87.452 25.876 88.148C25.876 88.148 26.224 88.496 26.572 88.496V88.844C26.224 88.844 25.876 88.496 25.876 88.844C26.224 89.192 26.92 88.844 26.92 89.54C26.572 90.236 25.586 89.83 25.586 90.526C27.674 90.874 29.704 91.976 31.444 93.716C31.792 95.108 32.836 96.5 31.792 97.892C31.792 97.892 32.14 97.892 32.488 98.24C32.488 98.936 32.488 98.936 31.792 99.632L32.488 99.98C32.14 99.98 32.14 100.328 31.792 100.328L32.14 101.024C32.488 101.024 31.444 101.372 31.444 101.72C31.096 102.764 32.14 103.46 31.096 104.156H30.748L31.096 104.504C30.4 104.504 30.4 104.852 30.4 105.2L29.994 106.476C29.646 107.172 28.602 106.476 28.254 107.172L29.646 107.52C29.646 107.868 27.906 107.926 28.254 108.622L27.906 109.666C27.906 108.97 27.21 109.318 26.862 109.318V109.666C26.862 110.014 27.21 110.014 27.558 110.014C26.862 111.406 25.876 109.55 25.18 110.594V110.246C25.18 110.246 25.18 109.898 24.832 110.246H24.484C24.02 109.898 22.048 109.782 21.874 108.738C24.02 106.65 26.282 103.46 26.978 100.328L27.326 99.98C27.326 99.632 26.978 99.632 26.978 99.632C26.978 99.284 28.022 98.588 27.326 98.24C26.978 97.544 27.674 97.602 26.978 97.254C27.326 96.558 26.978 95.862 26.63 95.166V94.818C26.282 94.47 25.818 94.122 25.122 94.47C24.426 94.818 23.73 95.514 23.034 95.514L22.686 95.166C21.642 95.166 21.236 97.254 19.844 96.21C19.148 95.862 19.496 96.558 19.148 96.558C18.8 96.21 19.148 96.21 18.8 95.862C18.104 95.862 19.148 96.21 18.452 96.558C18.104 96.906 18.104 96.326 17.756 96.326L18.336 95.514L18.104 94.76C19.496 94.064 20.888 91.976 21.236 90.236L22.28 89.192C21.584 88.844 22.28 88.148 21.932 87.452C22.28 87.104 22.628 87.104 22.628 86.756C22.628 86.756 21.932 86.756 22.28 86.408L22.628 86.06C22.28 85.712 22.28 85.712 21.932 85.712C22.628 85.364 22.628 85.016 23.324 84.668C22.628 84.668 22.28 83.972 21.932 83.972C21.932 83.276 21.932 82.928 22.28 82.928H22.628C21.932 82.58 21.932 81.884 21.236 81.536C21.584 80.84 20.308 81.246 19.96 80.55C19.264 79.506 18.162 80.202 17.118 79.854C16.77 80.55 16.422 80.55 15.726 80.55V80.202C15.436 80.202 14.74 80.318 14.102 80.376C13.986 80.376 13.638 79.912 13.522 79.912C13.406 78.984 15.03 78.346 15.378 77.65C17.466 76.606 19.554 75.91 21.99 76.606C23.034 77.302 23.382 77.65 24.426 78.346ZM15.03 80.898L16.77 81.246C16.074 81.246 16.422 81.594 16.074 81.942C16.422 82.29 16.77 81.942 17.118 81.942V81.594C17.814 81.594 17.698 82.348 17.814 82.638C17.118 81.594 16.77 83.334 16.074 82.29C15.784 82.58 15.552 82.406 15.262 82.522L15.204 82.406C15.378 82.116 15.378 81.942 15.378 81.942C15.146 81.71 14.972 81.536 14.74 81.478H14.566V81.304L14.334 81.246L15.03 80.898Z" fill="white"/>
<path d="M93.62 95.08C94.04 95.08 93.62 97.78 93.14 97.72C93.14 97.72 92.72 97.66 92.6 98.08L91.34 98.38C90.32 99.1 87.74 99.52 86 99.76C83.6 101.2 79.88 100.66 77.54 102.1C76.7 102.04 75.02 102.58 74.6 102.88C72.74 103.54 70.64 103.42 68.84 103.66C68.66 102.4 70.22 100.42 71.18 99.64C73.34 99.52 75.98 98.08 78.2 97.96C79.1 97.24 78.86 96.46 78.92 95.62C78.68 94.36 79.28 93.16 78.56 92.14C80.36 91.54 78.32 90.04 79.76 89.32C79.58 87.52 80.66 86.14 80.48 84.46C80.48 84.04 80.6 83.14 81.14 82.84C80.36 82.24 81.62 81.94 81.32 81.1L80.66 81.04C81.02 81.04 81.32 81.04 81.32 80.68C80.96 80.2 80.54 80.14 80.12 80.14C80.12 80.56 80.54 80.56 80.12 80.56C79.58 81.34 78.32 80.68 77.54 80.2C77.54 80.2 77.06 80.56 77.42 81.04L77.84 81.1C76.58 81.34 76.34 81.28 74.96 81.46C74.06 82.24 71.6 82.18 69.8 82.84C69.32 83.62 68.66 84.82 67.82 85.18C67.4 84.7 66.02 84.34 66.08 83.44C70.7 77.8 79.1 77.44 85.7 76.18C85.7 76.6 86.48 76.66 86.48 77.08C86.42 77.5 85.94 77.5 85.52 77.44L85.82 78.4C85.82 78.4 85.46 78.88 85.4 79.36C86.24 79.42 85.28 80.14 86.06 80.62L85.16 80.98L85.52 81.4L85.04 81.76C85.4 82.24 85.4 82.66 85.76 83.2C84.38 83.38 85.16 84.4 85.04 85.24C84.92 86.5 84.32 87.7 84.56 89.02L84.14 89.44L84.5 89.86C83.54 90.22 84.32 90.7 84.26 91.12C84.26 91.54 83.84 91.48 83.84 91.48C84.2 91.96 84.2 91.96 83.6 92.74C83.6 93.16 84.02 93.28 84.5 93.34L83.54 93.64L83.6 96.46C86.18 96.34 88.16 95.38 90.8 95.26C91.28 94.48 92.9 95.08 93.62 95.08ZM109.7 76.54C109.34 76.9 108.98 76.9 108.98 77.26C108.98 77.62 109.34 77.62 109.34 77.98C108.98 77.98 108.98 78.34 108.98 78.34L109.28 78.7C108.92 78.7 108.2 78.64 107.84 79L108.56 79.36C107.48 80.02 107.9 80.38 106.7 81.16L107.42 81.52C107.42 82.24 105.98 81.46 106.34 82.54C105.56 82.9 105.08 83.26 105.08 83.98H105.44V84.34C104.72 83.98 104.72 83.98 104.36 83.98C104 83.92 103.28 84.28 103.28 84.64C103.58 85 104.36 83.98 104.72 84.7H104.36C104.66 85.06 104.3 85.42 104.3 85.78L103.94 86.26C103.94 85.9 103.76 86.14 104.12 86.2C105.8 86.44 107.96 87.28 109.7 88.9L109.64 89.62C108.92 89.62 109.64 90.34 108.92 90.7L109.28 91.18C108.92 91.54 108.68 92.02 108.68 92.74C108.68 93.1 107.6 93.04 107.6 93.76C108.32 93.76 107.9 94.12 108.26 94.48C107.18 94.48 107.9 95.5 106.46 95.5C106.46 95.5 106.1 95.44 107.12 95.86C107.12 96.22 106.76 96.88 107.3 96.94H106.76L106.4 97.3C106.4 97.3 106.04 97.24 105.68 97.6C106.4 97.66 105.62 98.14 106.34 98.56C110.3 97.54 112.88 96.16 116.84 96.28C117.56 95.92 118.64 95.56 119.3 95.98C118.94 95.98 118.7 96.4 118.7 96.76C119.42 97.18 119.9 98.38 120.26 99.1C119.24 99.1 118.7 99.1 117.56 99.52L115.76 99.82C116.12 100.54 115.04 100.9 114.68 100.9C112.52 101.2 110.3 101.5 108.86 102.16C108.5 102.16 107.78 102.16 107.78 102.88C107.42 102.16 106.7 102.82 106.34 102.82C105.62 103.18 105.38 102.46 105.02 102.4C103.94 102.4 102.32 103.06 101.6 102.34C100.52 101.62 100.46 101.38 100.16 100.18C100.4 99.76 100.46 99.1 100.7 98.68C101 98.26 101.3 97.6 102.02 97.24C101.3 96.52 102.32 96.22 102.74 95.14C102.38 95.14 102.38 95.14 102.38 94.78H103.46C102.02 94 103.76 93.58 103.4 92.86C104.12 92.14 103.82 91.24 104.18 90.52L104.06 90.4C104.06 90.46 104.12 90.28 104.42 90.28C104.48 89.92 104.12 89.86 103.76 89.5C103.76 89.86 103.4 90.4 103.04 90.04C102.68 90.04 102.62 90.58 102.26 90.22C101.9 90.16 102.98 90.22 103.04 89.5C102.32 89.5 101.78 89.98 101.3 89.98C100.94 89.44 101.12 89.44 101.12 89.08C100.4 89.08 100.46 89.86 100.1 89.5C99.74 89.08 99.26 88.72 98.54 88.72C98.54 88 99.62 88.12 99.32 87.4L98.36 86.5L98.72 86.14V85.78L99.8 85.42C99.44 85.42 99.08 85.42 98.78 85.06C99.5 83.26 99.8 83.02 100.52 81.94L101.6 81.22C100.58 80.5 102.44 80.38 102.44 79.3C103.16 79.66 103.4 78.52 104.18 79.12C104.48 79 104.72 79.36 104.72 79C104.42 78.64 104.48 78.58 103.82 78.52C102.02 76.72 98.42 79.9 96.68 78.4C97.04 78.04 97.76 78.4 97.76 78.04C97.4 78.04 95.18 77.92 95.24 77.44C95.24 77.44 95 76.78 94.7 76.36L95.78 75.4V74.86C96.14 75.22 97.22 74.44 97.58 74.44C100.46 73.78 105.08 72.28 108.38 75.04C108.8 75.4 109.34 76.18 109.7 76.54ZM126.98 77.5V77.86C126.98 77.86 126.92 78.58 126.56 78.94L126.92 79.66C127.28 80.02 126.5 81.1 126.5 81.46C127.22 81.46 126.5 82.18 127.22 82.18C126.08 82.9 127.52 84.28 126.8 84.94C127.46 85.72 127.1 87.04 127.04 87.76C127.64 88.6 126.8 88.9 127.4 89.26C127.7 90.34 126.26 91.72 127.64 92.5L126.92 93.16C127.28 93.94 127.94 95.02 127.22 95.68C127.58 96.1 127.16 96.76 127.88 97.18L127.16 97.48C127.88 97.9 126.74 98.92 127.46 99.34L127.04 99.22L126.74 99.64C127.1 99.64 127.1 100 127.1 100.36C126.38 100.72 126.74 100.72 127.04 101.44L127.4 101.5C126.68 101.8 126.32 103.12 125.24 103.48C125.84 103.48 126.62 103.36 126.26 104.2H126.62V104.56C125.9 104.2 124.94 104.92 124.22 104.86C123.86 104.5 122.36 104.14 122.78 103.42L122.42 103.06L123.14 102.34H122.42C122.42 101.98 122.84 100.66 123.2 100.66L122.84 100.3C122.84 100.66 122.48 100.66 122.12 100.3C122.48 100.3 122.48 99.94 122.48 99.58C122.48 99.22 122.84 99.22 122.84 98.86H122.12C122.54 98.5 122.9 98.14 122.9 98.5H123.26C123.62 97.78 122.54 98.14 122.54 97.78C123.2 98.14 122.18 97.12 122.84 96.76C122.18 97 122.9 95.62 122.24 95.26L122.96 94.9C122.6 94.54 122.24 94.54 122.24 94.54C122.3 94.18 122.66 94.18 122.96 94.18C122.3 93.1 122 91.3 122 89.86C122.36 89.86 122.42 89.5 122.78 89.5C122.78 88.78 122.06 89.5 122.06 89.14L122.42 88.42C121.76 87.34 122.18 85.24 122.18 84.16C122.18 84.16 122.96 82.78 122.18 82.84C122.6 81.4 121.22 80.26 122.3 79.24C121.22 78.46 123.08 77.44 122 76.72C122.72 76.36 122.06 75.64 121.7 75.58C122.78 74.56 123.86 76 124.58 76.36C125.3 76.78 126.98 76.78 126.98 77.5ZM107.9 78.28L108.62 77.92C108.62 77.92 108.62 77.56 108.26 77.56C108.26 77.92 107.9 77.56 107.9 78.28ZM144.03 86.98H144.75C144.75 86.98 144.39 86.98 144.39 87.34H145.11L144.03 88.06H144.39L143.67 88.78C144.03 88.78 144.03 88.78 144.03 88.78C144.03 89.5 143.31 89.38 143.31 90.1L143.67 90.46C143.31 90.82 143.31 91.54 142.59 91.54C142.65 91.9 143.01 91.9 143.01 91.9C143.01 92.26 142.29 92.62 142.65 92.98L143.01 93.34C142.65 92.98 142.29 94.06 141.93 94.42C141.93 94.42 142.29 94.42 142.29 94.78C141.93 94.78 141.57 95.5 141.21 95.5C141.57 95.86 141.93 95.5 142.29 95.86C141.93 96.94 140.85 97.72 141.57 99.16L141.93 99.52C140.13 100.24 141.93 100.96 141.63 102.04C143.73 102.16 143.73 101.68 145.89 100.96C151.77 98.86 152.13 98.8 157.95 97.84C159.75 97.84 161.43 97.48 163.23 98.32C162.81 98.68 161.91 99.4 160.83 99.34C160.05 100 158.55 101.44 157.11 100.66C157.11 101.02 156.75 101.38 157.11 101.38C155.97 102.76 154.23 100.9 153.45 102.64L152.37 102.58L151.59 102.76V103.12C151.23 103.18 151.23 103.18 151.23 102.82C150.45 103.84 149.07 103.06 149.01 104.14L147.63 103.9C147.63 104.26 147.63 104.26 147.99 104.26C146.91 104.56 146.19 104.2 145.41 104.92C144.69 105.64 142.59 105.94 141.93 106.36C139.71 106.6 139.41 106.6 137.55 106.84V107.2C136.83 106.9 137.55 106.84 136.89 106.54C136.47 106.84 135.15 106.84 134.43 107.14H134.79C134.79 107.5 134.07 107.5 133.71 107.44C133.35 107.08 133.71 105.82 133.77 105.1C134.49 104.8 135.27 104.02 135.99 103.3L136.05 102.94C136.41 102.28 137.19 103.12 137.19 102.4C136.83 102.46 136.11 102.82 136.11 102.1C136.11 101.74 136.77 101.38 136.77 101.02H136.05C136.05 99.94 137.85 100.24 137.13 99.16C137.13 98.8 136.41 99.46 136.77 98.74C136.77 98.74 137.13 99.04 137.13 98.68C137.49 98.32 137.13 98.38 136.77 98.08H136.41C136.41 97.36 137.13 96.94 137.49 96.94C136.77 97 136.77 96.28 136.77 95.92L137.49 95.14C136.41 95.2 137.13 94.42 137.13 93.7C137.49 93.7 137.49 93.34 137.13 92.98C137.49 92.98 137.49 92.98 137.85 92.62C137.49 92.62 137.49 92.26 137.49 92.26C137.85 91.9 138.15 91.54 138.51 91.54C137.79 91.18 138.51 90.82 138.51 90.46C138.87 90.1 138.87 89.14 138.87 88.78C139.23 88.42 139.59 87.7 139.95 87.34H139.59C139.95 86.26 142.23 86.98 142.59 86.62C142.95 86.98 143.67 86.26 144.03 86.98ZM147.69 92.2C148.65 91.54 148.35 90.7 148.59 89.92C148.35 88.72 148.95 87.58 148.35 86.62C150.03 86.14 148.29 84.46 149.61 83.86C149.55 82.18 150.27 83.2 150.21 81.52C150.27 81.16 150.39 80.26 150.87 79.96C150.15 79.42 151.41 79.24 151.17 78.34L150.33 78.22C150.75 78.28 151.17 78.34 151.23 77.98C150.93 77.5 150.51 77.44 150.09 77.38C150.03 77.74 150.45 77.8 150.09 77.74C149.55 78.46 148.35 77.86 147.63 77.26C147.63 77.26 147.21 77.62 147.57 78.1L147.93 78.16C146.67 78.34 146.67 78.22 145.47 78.34C144.51 79 142.05 78.94 140.31 79.48C139.77 80.14 139.17 81.28 138.33 81.58C137.97 81.1 136.41 80.56 136.59 79.78C141.21 74.26 149.43 74.68 155.67 73.84C155.61 74.26 156.33 74.38 156.27 74.8C156.21 75.16 155.79 75.04 155.43 74.98L155.67 76.54C155.67 76.54 155.25 76.48 155.19 76.9C156.03 77.02 155.07 77.68 155.79 78.22L154.95 78.52L155.19 78.94L154.71 79.24C155.07 79.72 155.01 80.08 155.31 80.56C154.05 80.74 154.71 81.7 154.53 82.48L153.87 84.34L154.17 84.76C153.27 85 154.05 85.72 153.93 86.08C153.87 86.5 153.51 86.44 153.51 86.44C153.81 86.92 153.81 86.92 153.27 87.64C153.21 88 153.63 88.12 153.93 88.18L153.15 88.42L153.03 91.24C152.73 91.96 151.65 93.04 151.29 93.34C150.57 93.76 148.65 92.98 147.69 92.2ZM206.266 91.54C206.206 92.26 203.566 92.44 204.946 93.64C204.526 93.58 204.166 93.58 203.746 94.3C203.746 94.3 203.686 94.66 203.686 95.02C202.486 95.32 202.066 96.4 200.866 97.06C201.226 97.06 201.586 97.12 201.586 97.12L200.386 97.36L200.806 97.78L198.706 99.52C197.446 99.7 197.806 99.76 198.226 100.18C197.446 99.7 197.686 101.26 196.666 100.78L195.046 101.92C195.406 101.98 195.766 101.98 195.706 102.34L194.566 102.58C195.286 103.42 195.946 102.76 197.086 102.82C199.786 102.7 202.786 102.1 205.186 103.3C205.726 103.6 207.406 105.04 206.626 105.34C205.846 105.58 205.786 106.06 205.426 106.36C205.366 106.72 205.786 106.42 206.146 106.42C205.726 106.78 205.006 106.66 205.006 107.02L204.886 107.44C205.306 107.5 203.746 108.1 204.406 108.52C204.046 108.46 203.326 108.4 202.906 108.76L203.626 109.24C202.906 108.76 202.426 109.84 202.006 109.78C202.366 110.62 201.286 109.72 201.226 110.5C201.586 110.92 201.946 110.56 201.946 110.56C202.366 110.98 201.526 111.28 201.166 111.64L200.386 111.16C200.026 111.52 200.326 111.94 199.966 112.24C199.966 112.24 199.126 112.54 198.706 112.96C199.066 113.32 199.486 113.02 199.486 113.02C199.486 113.38 199.486 113.38 199.006 113.68C198.286 113.98 197.866 113.92 197.806 114.7C197.386 115.42 196.186 115.18 196.486 115.9C196.366 117.04 196.726 116.86 197.866 116.92C201.706 116.14 205.486 114.46 209.566 115.18C210.886 115.42 211.246 117.28 211.246 117.64C210.466 117.58 209.206 117.88 208.486 118.18L208.426 118.54C207.646 118.48 206.446 119.08 205.426 118.66L204.946 118.96L205.366 119.02C205.306 119.8 203.446 118.84 203.386 119.62C203.026 119.92 202.666 119.56 202.246 119.5C202.546 121.06 201.166 119.38 200.326 120.04L198.466 119.86L198.766 120.7C197.986 120.64 196.906 120.46 196.186 120.04C196.126 120.4 195.346 120.34 195.346 120.34C194.986 120.28 195.226 119.98 195.286 119.98C194.626 119.62 192.586 121.24 192.346 119.74C191.926 120.04 190.966 119.62 190.546 119.62C190.246 118.78 191.746 116.92 191.446 116.14C192.286 115.84 192.406 114.4 193.486 114.04L193.186 113.68C195.706 110.86 198.166 108.76 200.266 106.36L200.326 105.7C199.246 105.58 198.046 106.36 196.906 105.88C196.486 106.54 194.986 106.72 193.786 106.9C193.366 106.9 193.426 106.9 193.066 107.2L191.926 107.08C191.206 107.02 190.606 106.78 189.766 107.14L188.326 106.54L188.686 106.24L187.966 106.18C188.386 105.4 188.866 104.02 189.646 103.72L189.346 103.3C188.986 102.52 190.546 102.64 190.606 101.56C191.386 100.9 192.346 99.46 193.546 98.8C194.806 97.42 196.066 95.86 197.686 94.54L198.466 94.18L198.106 93.76C198.466 93.82 198.466 93.82 198.886 93.82C198.706 93.64 198.526 93.58 198.406 93.52C198.766 93.52 199.306 93.4 199.366 92.74C197.926 91.9 196.906 94.48 195.886 93.22C194.746 93.82 193.906 93.28 192.706 93.52V93.88C192.286 93.52 191.866 94.18 191.506 94.18C190.366 94.48 188.866 92.08 187.846 91.24C188.326 89.74 190.666 91.06 191.866 90.46C195.706 89.98 199.606 88.84 203.746 89.26C204.466 89.68 205.966 90.7 206.266 91.54ZM190.606 81.7L193.726 80.98C199.606 80.32 205.906 78.94 212.026 79.9C211.006 80.68 212.866 81.52 211.546 82.42C209.686 82.6 207.406 83.56 205.246 82.96C204.286 83.68 203.386 83.26 202.486 83.92C201.226 83.02 200.146 84.52 198.886 84.1C197.506 83.92 196.546 84.64 195.586 85.42C195.646 84.58 194.266 85.24 193.306 85.18C191.866 86.26 188.686 86.8 186.466 86.56C185.926 87.82 184.666 86.92 183.646 87.64L184.126 88C183.226 87.94 183.226 87.52 182.806 87.52C182.506 86.26 181.486 87.64 180.646 86.8L179.326 85.24C180.826 83.8 184.006 83.56 185.866 82.96C187.246 82.24 188.986 82.72 189.886 81.82C189.946 81.46 190.546 82.12 190.606 81.7ZM205.066 62.68L204.646 62.98C204.586 63.34 204.586 63.94 204.586 64.3C203.746 64.66 204.466 65.26 203.986 65.98C204.346 66.76 203.506 68.38 203.806 69.16L203.026 69.52C204.046 70.3 202.486 70.84 203.146 72.04C201.766 72.16 203.266 72.58 203.086 73.12L202.606 73.54H202.846C202.246 73.66 202.486 74.38 202.846 74.8C202.486 74.74 202.066 75.1 201.706 75.4C202.066 75.46 202.006 75.88 201.946 76.24L201.646 76.18C201.766 76.24 201.886 76.36 201.886 76.42C201.826 76.6 201.526 76.6 201.466 76.9C201.466 76.9 201.466 77.32 201.886 77.38C201.826 78.1 199.306 77.56 200.026 78.76C199.186 79.06 198.526 77.92 198.106 77.92C198.526 77.56 197.446 77.08 197.866 76.72C198.166 76.78 198.226 76.42 198.226 76.42L197.926 76L198.406 75.28C197.686 74.5 199.606 73.9 198.646 72.64C198.646 72.64 199.006 72.7 199.066 72.34L198.706 72.28H198.286C198.046 71.08 199.966 71.02 198.886 70.48C199.306 69.46 199.006 68.98 199.426 68.32L199.126 67.9C200.266 67.96 199.186 66.82 200.326 66.88L201.166 66.52C201.166 66.22 200.746 66.52 200.386 66.46V66.1C199.246 66.04 197.506 65.98 196.006 67C193.366 67.12 191.266 67.84 189.346 68.44L189.286 68.8L188.386 68.02L188.746 67.72C188.386 67.66 187.666 65.74 187.366 65.26C187.786 64.96 189.466 65.02 189.946 64.36C193.006 63.52 196.966 61.9 200.326 61.84C201.826 62.02 204.106 60.28 205.066 62.68ZM241.448 88.54C240.368 88.78 240.728 90.22 239.348 90.04C239.288 90.4 239.288 90.4 239.648 90.46H240.008C239.228 90.76 238.148 90.58 237.728 91.24C238.028 91.66 238.388 91.72 238.388 92.08C238.748 92.08 238.028 92.38 237.668 92.32L237.968 92.74C237.248 93.04 236.408 93.1 235.988 93.76C235.568 94.42 234.548 93.64 234.068 94.66C234.368 95.44 235.208 94.06 235.508 94.78C235.448 95.14 234.728 95.08 234.668 95.8L233.948 95.74L234.368 95.44C234.068 94.78 233.648 95.56 233.288 95.68C233.468 95.8 233.108 96.1 233.468 96.4L232.868 95.92C232.388 96.22 232.328 96.58 232.328 96.94L233.708 97.54C232.628 97.36 231.548 97.24 231.068 98.26C231.368 98.68 231.848 97.66 232.208 98.02C232.148 98.38 231.788 98.32 232.088 98.74C231.668 99.04 230.648 98.56 230.168 99.28C230.528 99.28 230.888 99.64 231.248 99.4C230.468 100.36 228.728 98.62 228.968 100.48C228.908 100.78 229.268 100.84 229.268 101.2C228.848 101.5 227.828 100.78 228.128 101.44L228.488 101.5C228.008 101.86 227.288 101.86 227.288 102.22C227.528 102.94 227.888 103 228.248 103C229.328 103.12 229.928 102.58 230.948 102.7C233.228 101.92 235.628 101.86 238.088 102.58C238.748 103 238.928 103.9 239.228 104.62C238.868 104.62 238.868 104.62 238.808 104.98C238.088 104.8 238.688 105.16 237.848 105.46C236.708 106.06 236.408 107.86 235.508 108.4C234.788 108.76 234.308 109.78 233.528 110.08L234.608 110.2L233.888 110.5L233.528 110.44C233.168 110.38 233.408 111.16 233.048 111.1L233.648 111.88C232.568 111.7 232.388 113.14 231.368 112.66C231.008 113.02 230.528 113.8 229.808 113.74C229.748 114.04 230.108 114.1 230.108 114.1C230.048 114.46 229.088 113.56 229.688 114.4L230.048 114.46C230.048 114.46 229.688 114.4 229.688 114.76L230.048 114.82L230.228 114.88C230.588 115.24 230.768 114.52 231.128 114.94C232.148 115.06 233.228 114.4 234.308 114.16C237.728 113.32 240.788 112.96 244.328 113.74C245.108 114.22 244.808 114.7 244.808 115.3C243.428 115.12 242.348 116.02 241.568 116.26C241.208 116.62 240.308 116.32 240.068 116.8C239.408 116.74 239.048 117.1 238.448 117.34L238.208 117.28C237.788 116.62 237.488 117.16 236.768 117.1L236.408 117.04L236.768 117.46C236.228 118.12 235.508 117.34 234.668 117.88C234.308 117.88 233.288 117.94 233.108 118.66C231.608 119.14 229.988 117.94 228.728 118.9L228.008 118.72C228.128 118.6 228.668 118.54 229.028 118.54C228.668 118.42 228.428 118.06 228.188 118.06C228.008 118.72 226.448 117.88 225.968 118.6V118.78L225.548 118.9L225.788 118.6C225.788 118.24 225.608 118.54 225.248 118.18C225.248 118.54 224.888 118.42 224.828 118.78L224.468 118.72C224.168 118.36 224.708 117.7 224.408 117.28C225.128 117.46 224.948 115.42 225.308 115.12L225.368 114.76C226.568 113.74 227.528 112 228.488 110.74C229.688 109.42 230.348 107.86 232.208 106.66C232.628 106 232.748 105.94 232.568 105.88C230.648 106.06 230.168 106.54 228.788 106.54C228.848 106.18 228.068 106.42 227.708 106.36V106.72C226.508 107.38 224.648 106.12 223.148 106.3C223.088 106.66 222.608 106.6 222.308 106.24C221.768 105.04 220.688 106.72 220.868 105.64C221.288 104.98 221.048 103.66 221.828 103.06C222.728 101.74 223.568 100.72 224.408 99.34C226.148 97.36 227.948 95.8 229.988 93.88C230.048 93.16 231.248 92.44 231.668 91.78C231.728 91.06 232.808 91.54 232.508 90.76C232.928 90.4 233.588 90.46 233.348 90.1C233.708 90.1 233.708 90.1 233.768 89.74C233.348 90.1 232.808 89.02 231.968 90.04L232.328 90.1C231.188 90.7 230.408 90.1 229.628 90.4L229.268 90.46L228.488 90.64C227.708 90.82 227.228 90.34 226.448 90.7C227.168 90.7 227.708 90.94 227.768 91.18C227.408 91.12 226.628 91.84 225.908 91.72L225.848 92.08C224.768 91.9 223.988 92.56 222.968 92.08L223.448 92.44C222.908 92.2 222.488 92.98 222.188 92.32C221.108 92.56 219.488 90.94 218.828 90.4C218.588 89.74 219.908 89.38 220.328 89.08C222.968 88.36 225.488 88.24 227.768 87.04L228.128 87.1C230.048 86.62 232.688 86.26 234.908 85.78C237.068 85.66 237.728 85.9 239.528 86.38C240.728 86.92 241.928 87.94 241.448 88.54ZM242.228 79.06C242.108 80.14 242.168 79.3 241.328 79.96L241.208 80.86C239.708 81.4 238.028 80.8 236.528 81.34C236.108 82 235.808 81.28 235.088 81.52L234.128 81.76V82.12C233.408 82.12 231.968 81.58 230.708 82.84C228.908 82.66 227.348 83.5 226.268 83.8L225.908 83.38L225.548 83.62C225.188 83.62 225.128 83.98 224.768 83.92C223.208 85.18 221.588 83.14 219.968 84.76C219.608 84.7 219.248 84.7 219.248 84.7C218.468 85 217.868 84.64 217.448 85.3L217.808 85.36C216.608 85.96 215.408 84.7 214.208 85.3C213.788 83.92 214.328 83.68 213.128 83.14C215.468 81.64 218.768 81.1 221.468 80.32C223.268 80.2 225.188 79.3 227.048 79.18C228.188 78.22 229.628 78.4 231.128 78.22C232.688 77.38 235.688 77.32 237.548 77.14C238.988 77.68 241.688 77.62 242.228 79.06ZM227.048 64.24L228.368 65.5C229.628 66.34 230.708 66.7 231.188 68.02C230.348 66.7 229.988 68.8 229.148 68.38C229.148 68.8 229.628 68.8 229.988 69.22V68.8H230.828C230.828 69.64 231.668 69.22 232.088 69.64C231.308 70.06 230.828 68.8 230.468 69.64V70.06C229.988 70.06 229.148 68.8 228.788 70.06H229.628C229.988 70.06 229.628 71.32 230.468 71.32L228.788 72.04L229.988 72.52C229.628 72.52 229.148 72.88 229.148 72.52C228.788 72.52 228.788 72.52 228.788 72.88H228.368C228.788 72.52 228.368 72.52 228.368 72.52C227.528 72.52 227.048 72.94 226.628 72.58C225.788 72.1 225.068 72.94 224.648 72.94C225.428 73.78 226.688 72.88 227.528 72.88L227.048 73.78V73.36C226.208 73.36 225.428 73.78 225.068 74.26L225.848 74.62L225.428 75.04H224.648V74.62C223.388 75.04 222.068 75.04 221.288 73.78C219.968 74.26 219.608 72.1 218.348 72.58L218.768 72.1C218.768 70.96 217.088 71.74 217.088 70.06C217.088 70.06 216.668 70.06 217.088 69.64C217.088 69.22 217.448 68.8 217.928 69.22C217.928 68.38 217.928 67.72 218.348 66.82C217.928 66.46 219.128 66.04 218.768 65.2C219.608 63.88 221.348 64.24 222.128 63.4C223.748 62.98 225.368 63.76 227.048 64.24ZM224.468 66.88L225.068 66.58L224.288 66.4L223.808 66.88C222.848 67.18 222.548 68.68 221.948 68.8C222.128 68.86 221.888 69.16 221.888 69.46C222.248 69.76 221.888 69.76 221.588 69.76C222.248 70.06 221.588 70.36 221.588 71.02C223.508 71.02 224.468 70.06 225.728 69.46C226.028 68.5 226.748 69.46 227.048 68.8H226.328C226.328 68.5 226.388 68.14 226.748 68.14C226.388 66.88 225.068 67.18 224.468 66.88ZM291.377 89.32L291.737 90.34L291.137 92.32C289.277 93.34 287.657 93.28 285.797 94.3C284.717 93.88 284.657 95.32 283.577 95.26C283.157 95.98 282.077 96.64 281.657 97.3C281.657 97.66 282.017 97.36 282.377 97.36C282.017 98.08 281.477 98.74 281.837 99.52C281.117 99.46 281.837 100.3 281.117 101.02C280.757 101.38 280.697 102.46 280.277 103.12C279.857 103.84 279.857 104.2 279.437 104.92C279.797 104.92 279.797 105.64 280.157 105.28C280.097 106 279.077 105.58 279.017 106.3C279.377 106.3 279.377 106.3 279.377 106.3C278.657 106.66 278.597 107.74 277.817 108.04L278.537 108.46C278.177 108.46 277.457 109.36 277.097 109.72C276.737 109.36 274.397 108.46 275.177 107.8L275.537 107.44C275.537 107.44 275.177 107.08 275.237 106.72C275.597 106.36 275.957 106.78 275.957 106.42L275.597 106C276.377 105.7 275.657 105.28 276.017 104.98C276.437 103.9 276.437 103.54 276.137 102.82C276.497 102.46 276.917 101.74 276.977 101.02C277.397 100 277.637 99.16 278.057 98.08C278.057 97.72 278.237 97.42 278.657 96.7C277.637 95.56 276.857 96.94 275.417 96.88C274.637 97.54 273.257 97.12 272.477 98.14C269.957 98.38 268.097 99.16 265.877 100.12C264.497 100.06 263.297 101.26 262.157 101.56C261.077 101.5 261.437 100.18 261.437 99.82C261.137 99.4 261.497 98.62 261.137 98.26C263.417 96.16 266.657 95.62 269.597 94.66C270.017 94 271.097 94.06 271.817 94.06C274.397 93.1 276.977 91.84 279.497 91.6C280.637 90.94 281.657 91.36 282.437 90.64C284.657 89.68 287.897 90.52 289.757 89.5C290.657 89.56 291.017 89.26 291.377 89.32ZM272.777 105.76C272.777 106.12 273.137 106.18 272.717 106.48L272.537 106.6C272.177 106.6 272.057 106.12 271.997 106.48C272.357 106.84 272.357 106.84 272.717 106.84V107.2C272.357 107.2 272.117 107.2 272.297 107.56L271.937 108.28L271.877 108.64C271.517 108.58 271.517 108.58 271.517 108.94C271.457 109.36 271.337 109.54 271.217 110.32C271.517 111.04 270.677 111.34 271.397 111.7C270.977 112.06 270.797 112.36 271.097 112.66L271.277 112.9C271.577 113.2 272.237 113.2 273.137 112.96C273.497 112.24 274.097 113.38 274.517 112.66C277.757 112.84 280.277 110.44 284.177 111.34C285.677 110.32 287.837 110.44 289.637 110.92C290.057 111.34 289.637 112 289.637 112.54C288.557 112.48 287.777 112.78 287.057 113.5C287.057 113.5 287.057 113.5 286.697 113.44C286.997 113.8 286.637 113.8 286.637 113.8C284.837 114.46 282.737 115.42 280.937 115.72C278.357 115.9 276.497 116.92 273.977 117.16C272.177 117.76 269.417 116.92 267.617 116.8L268.397 116.5C267.737 115.36 265.457 117.4 266.297 115.3L266.657 114.94C266.297 114.58 266.357 114.22 266.357 114.22C265.997 113.5 266.717 113.86 266.717 113.14C266.717 113.14 266.717 113.14 266.357 113.14C267.137 112.48 266.477 111.34 267.557 111.04C267.257 110.32 268.157 107.68 268.157 107.32C268.577 107.02 268.577 106.66 268.937 106.3C268.577 106.3 268.817 105.34 268.817 104.98C269.957 103.6 272.057 105.4 272.777 105.76ZM281.897 66.7C280.757 68.26 281.477 68.56 281.477 70.12C281.477 70.9 280.937 71.08 280.937 71.86H281.297C280.637 72.82 280.397 73.54 280.457 74.8C281.237 74.44 280.457 74.8 281.597 74.44L282.077 74.14L282.497 73.78C284.057 73.78 284.057 72.82 285.617 73.54C286.337 72.04 287.957 73.24 289.097 73.24V75.04C286.397 76.6 285.917 76.24 283.217 77.74C280.517 79.3 281.417 78.34 279.137 80.32C279.137 80.68 279.137 81.88 278.777 82.24C279.137 82.66 277.997 82.66 278.357 83.86C277.577 84.22 278.357 85.36 277.577 85.78L277.997 86.14C276.797 86.56 277.217 88.42 276.797 89.2C276.437 90.7 271.697 91.3 271.037 91.18C270.617 91.18 270.257 90.76 270.257 90.4C270.257 90.04 269.897 89.86 269.477 89.86L269.297 89.26C270.077 89.26 269.477 88.06 269.477 87.7C268.697 88.06 268.697 86.92 268.697 86.56C268.697 86.14 269.477 86.56 269.477 85.78C268.697 85.78 268.337 85.36 268.697 84.64C269.117 84.64 269.477 84.22 269.897 83.86H269.477C270.017 82.6 270.017 81.4 272.597 79.78L273.977 78.82C274.697 78.52 275.297 77.98 275.657 77.44C276.137 76.78 276.317 76.36 276.437 75.64C276.617 74.62 276.557 73.72 276.797 73.42C276.797 72.7 276.017 71.5 277.217 71.14V69.58L277.577 70C277.937 69.58 277.577 68.8 277.217 68.8C277.217 67.66 279.077 66.34 280.277 65.98C280.997 65.98 281.897 66.34 281.897 66.7ZM267.377 70L267.977 70.24C266.537 71.32 266.537 72.4 266.897 73.84C267.257 74.2 266.537 74.2 266.537 74.92C266.897 76.72 267.257 78.52 266.177 79.96C266.897 79.96 266.537 80.68 266.537 80.68H266.177C265.817 81.04 266.537 81.4 266.537 81.76L265.817 82.12C266.177 83.2 266.897 84.04 266.537 85.12C266.177 84.76 264.317 84.88 264.317 84.16V84.52C263.957 84.16 263.357 83.56 263.357 83.2C262.997 82.48 262.637 82.48 262.277 81.76C262.637 81.4 263.357 81.4 262.997 80.68H262.637C263.357 79.96 262.277 79.6 262.637 78.88C262.997 78.52 262.637 77.8 262.277 77.44C262.277 77.44 262.277 77.44 262.637 77.44C262.637 77.44 262.997 77.44 262.997 77.08C262.637 76.72 262.637 77.08 262.277 77.08C262.637 76.36 262.637 75.28 262.637 74.56C262.997 74.56 262.637 74.2 262.637 73.84C262.277 73.12 262.637 72.4 262.997 71.68C263.717 70.6 265.937 69.76 267.377 70ZM275.897 81.52C273.917 81.52 273.437 83.5 272.477 84.46C272.477 85.48 272.477 86.92 272.957 87.88C273.917 87.88 273.737 87.4 273.917 87.4C273.797 86.32 275.117 85.06 274.937 84.04C275.357 83.02 274.937 82.06 275.897 81.52ZM327.713 73.12C327.713 73.48 327.413 74.2 328.133 74.56L327.053 74.92C327.413 75.28 328.133 75.28 328.493 75.28C328.553 76 327.773 75.28 327.773 75.64L327.833 76L327.473 76.36C328.553 76.36 327.473 77.68 327.473 78.04L327.113 78.4C327.893 79.12 327.533 79.84 327.893 80.56H327.533C327.233 80.92 327.593 81.28 327.593 81.64L327.233 82C327.593 82.36 327.593 82.72 328.013 83.08H327.293C326.933 83.44 327.653 83.8 326.933 84.16L327.653 84.88C327.713 85.24 326.213 84.94 326.633 85.96C326.633 86.32 326.633 86.68 326.273 87.1C326.633 87.04 326.693 87.4 326.693 87.76C325.553 88.72 327.113 89.92 325.313 90.34C325.313 90.34 325.313 90.7 325.673 90.7L325.373 91.3C326.513 92.02 327.053 92.08 328.133 92.8L327.473 93.88C328.553 94.24 326.753 94.96 327.833 95.68H327.113C327.173 96.4 328.193 95.68 327.893 96.4C327.533 96.76 327.173 96.76 327.173 97.12L327.533 97.48L327.233 98.2L327.593 98.92C327.593 98.92 326.873 98.92 327.233 99.28L327.593 99.64L326.513 99.7C326.513 100.06 326.873 100 326.873 100H327.233C326.993 100.24 327.113 100.36 327.293 100.36C327.113 100.42 326.933 100.48 326.933 100.72C327.653 101.44 326.933 101.8 327.353 102.52C326.993 102.52 326.993 102.88 326.993 102.88L326.633 103.3C326.633 103.66 326.993 103.96 326.693 104.74H326.333C327.053 105.04 326.693 106 326.693 106.36C325.973 106.78 326.393 107.5 326.753 108.16C326.393 108.58 326.033 108.22 325.673 107.86V108.22L326.393 108.94L325.373 109.66L325.733 110.02C326.093 109.66 326.093 110.38 326.453 110.02L325.733 111.1C325.733 111.1 325.433 111.46 325.433 111.82C325.073 111.82 323.033 113.26 321.953 112.54L322.193 112.36L321.893 111.88C322.253 111.16 323.333 111.46 323.333 111.1C322.913 110.8 322.973 111.04 322.193 110.8V110.44C321.833 110.44 321.473 110.08 321.473 110.44L321.533 111.16L321.113 110.8C320.753 110.14 321.833 109.72 322.193 109.72C321.473 109.36 321.413 108.64 320.693 108.34C321.053 107.2 320.633 105.94 320.993 104.86C320.933 103.78 321.293 103 321.653 102.28L321.233 101.92C321.893 99.76 321.833 98.32 322.133 95.8C321.413 94.72 320.693 95.92 319.253 95.56C319.253 95.56 318.893 95.92 318.533 95.98V95.62C317.873 96.7 317.333 96.34 316.673 96.76C315.593 97.12 314.213 96.76 313.493 97.84C312.473 98.98 310.913 97.18 309.473 98.68H310.193C309.893 99.76 309.113 98.68 308.393 98.74C307.673 98.02 307.013 96.1 306.293 96.46C305.573 96.52 305.573 95.44 304.853 95.44C305.213 94.72 306.293 96.1 305.573 95.08V94.72C305.153 94.36 304.433 94 303.713 94.06V93.7C303.713 93.34 303.353 93.34 302.993 93.34C303.713 92.62 302.273 92.62 302.933 91.9L303.653 91.54L303.293 91.18C302.933 91.54 302.573 90.82 302.213 90.82C301.493 90.52 301.613 90.52 300.893 91.24C300.953 92.68 299.873 93.82 299.573 95.26V95.74C299.213 96.1 298.853 96.1 298.913 96.82C298.553 96.82 296.753 97.54 295.673 97.18L297.833 96.82C297.113 96.52 295.673 96.46 295.313 96.46L295.613 95.74C295.973 96.1 296.333 95.26 296.693 94.9C295.973 94.54 295.253 95.62 294.533 94.6C294.893 94.54 295.253 94.18 295.253 94.18C295.193 93.82 294.833 93.82 294.833 93.46C295.133 93.46 295.193 93.16 295.433 93.1C295.313 93.1 295.193 92.98 295.193 92.74C295.553 93.1 295.913 92.74 295.913 93.1L296.273 92.74C295.913 92.02 295.553 92.74 295.193 92.38C295.493 90.94 295.433 88.9 297.233 88.12H297.593C297.233 87.76 296.873 87.76 296.513 87.82C296.513 87.46 296.813 86.68 297.173 85.96C297.893 85.96 298.253 85.96 298.253 85.6C297.833 84.88 297.533 85.96 297.473 84.88L298.193 84.52C297.113 83.8 298.493 83.08 298.493 82C298.853 81.58 299.213 81.94 299.573 81.58C299.213 81.22 299.213 80.98 299.213 80.62L299.933 80.26L299.213 79.9C299.933 79.54 299.513 78.22 300.233 78.22C299.513 77.86 299.873 77.5 299.873 77.14C300.533 74.98 303.833 76.78 304.853 74.92C304.133 74.92 303.053 75.28 302.333 75.28C301.973 74.92 300.893 75.7 300.533 74.98C301.553 74.2 304.373 74.68 305.033 73.6L305.813 74.14C305.873 74.5 305.753 74.86 305.393 74.86L305.633 76.72C305.273 76.72 305.273 76.72 305.273 77.08C305.633 78.52 305.093 79.72 304.793 81.58C304.793 81.94 304.133 82.66 304.133 83.38C303.773 83.74 303.653 84.64 303.713 85C306.653 87.82 308.033 90.76 310.253 93.94C310.253 94.3 310.673 95.02 311.333 94.66C315.293 92.74 318.773 92.14 323.093 90.94C323.393 90.52 323.753 90.52 323.753 90.16C323.393 89.8 323.033 90.58 322.673 90.58L323.033 89.86C323.033 89.86 322.673 89.5 322.313 89.5C322.313 89.14 323.033 89.5 323.393 89.08L323.033 88.78L322.973 88.42L322.253 88.06C322.613 87.34 323.093 87.52 322.673 86.86C322.313 86.38 322.733 86.62 322.673 85.72C323.393 85.66 322.853 84.76 322.853 84.4C322.853 84.4 322.493 84.4 322.493 84.04L323.213 83.62C322.433 82.96 322.793 82.96 322.793 82.24L323.153 81.46L322.373 80.8C322.733 80.8 322.733 80.8 322.733 80.44C322.373 80.44 322.013 80.8 321.293 80.44C320.933 80.5 320.933 80.14 320.573 80.5C320.573 80.68 320.633 80.74 320.693 80.8C319.313 80.74 318.413 82.54 317.093 81.52C316.373 81.58 315.653 81.58 315.293 82.3C315.293 82.66 315.293 82.66 315.653 82.66C316.373 82.66 316.013 81.94 316.733 81.94C316.733 82.3 316.913 82.36 317.273 82.3C317.993 82.3 317.813 82.24 318.533 82.24C317.453 82.96 315.653 82.66 314.933 83.02C313.853 82.72 313.313 83.74 312.953 84.1L312.533 83.44C312.533 83.44 312.533 83.08 312.173 83.08H311.813C311.453 83.44 311.873 83.8 312.233 84.16C312.233 84.88 311.153 84.88 310.793 84.52C310.433 84.58 310.793 84.88 310.793 85.24C310.433 85.3 309.833 85.36 309.173 85.36C309.533 85.3 309.413 84.52 309.413 83.86C308.693 83.5 308.333 83.56 307.673 83.44C307.253 81.58 310.013 80.68 311.033 79.9C314.273 78.4 316.913 77.74 319.793 76.6C321.233 76.54 322.313 76.18 322.613 75.1C322.613 74.74 322.973 74.38 322.613 74.38L323.693 73.6C323.333 73.6 322.973 73.36 322.613 73.3C322.733 73.3 322.913 73.18 322.913 72.94H322.553C322.913 72.58 323.633 72.52 323.633 72.16C323.273 71.8 323.273 72.16 322.913 72.22C323.273 71.44 325.193 71.38 325.553 71.38C326.273 71.74 327.353 72.4 327.713 73.12ZM303.053 76.36C303.053 76.3 302.753 75.94 301.973 76C302.393 76.24 302.753 77.08 303.053 76.36ZM301.733 79.84C301.013 79.6 300.353 80.2 299.993 80.26C300.653 80.26 301.013 80.2 301.733 79.84ZM301.673 78.16C302.033 77.8 302.753 77.8 302.753 77.44C302.393 77.44 301.673 77.44 301.673 78.16ZM301.673 77.08H302.393C302.033 76.72 301.973 76.36 301.613 76.36L301.673 77.08ZM297.353 92.32C296.933 91.6 296.633 92.74 296.273 92.02C296.273 92.74 296.993 92.32 297.353 92.32ZM300.233 78.22L300.293 78.94C300.473 78.76 300.773 78.64 301.133 78.58C300.713 78.58 300.473 78.46 300.233 78.22ZM320.933 80.8C320.933 80.8 320.753 80.86 320.693 80.8H320.933ZM362.836 78.22C361.816 78.7 362.596 79.36 361.576 79.84L362.296 80.08C362.296 80.08 361.996 80.14 361.996 80.5L362.356 80.44L361.336 80.92L362.416 81.16C361.396 81.64 362.176 82.3 362.236 82.66C362.656 82.96 361.336 83.5 361.756 84.16C362.296 85.54 361.576 85.36 362.056 86.44C361.396 86.86 362.176 87.52 362.236 87.88L362.956 87.76C364.576 86.14 365.776 86.5 367.456 85.24L368.836 84.7C368.836 84.7 368.776 84.34 368.416 84.04C369.136 83.92 368.296 83.68 368.956 83.5L368.536 83.08C369.556 82.18 367.696 82.18 368.716 81.34C368.656 81.04 368.656 80.68 368.296 80.68L368.956 80.2C368.176 79.96 368.536 79.18 368.476 78.82C369.556 78.64 373.096 78.58 373.936 79.6C373.576 79.6 373.576 79.6 373.216 79.66C373.576 79.96 373.576 79.96 373.936 79.96L373.276 80.38C373.996 80.32 374.056 80.68 374.056 80.98C374.116 81.34 373.036 81.46 373.456 82.18C373.516 82.54 373.876 82.48 374.236 82.42C374.296 83.14 373.876 82.84 373.576 83.26L373.936 83.2C373.336 83.98 373.456 84.76 373.576 85.84C373.636 86.2 373.336 87.76 373.336 88.12C373.156 89.26 373.156 89.44 373.156 89.98L373.576 90.7L372.856 90.76L373.216 91.06H373.576C373.276 91.42 373.756 92.08 373.096 92.56C374.236 93.16 372.856 93.64 373.276 94.36C373.396 95.38 373.876 96.46 373.216 97.24L373.636 97.54C373.696 97.9 372.976 97.96 373.336 98.32L373.036 98.68C373.456 99.04 373.516 99.76 373.216 100.48L372.856 100.54C373.276 101.2 374.056 101.5 373.816 101.86C373.456 101.92 373.336 101.56 373.096 101.98C373.456 101.92 373.216 103.06 373.936 102.94L373.576 103.36H373.816C373.576 103.42 373.576 103.72 373.276 103.78C373.696 104.08 373.636 103.72 374.056 104.02C373.696 104.44 373.696 104.08 373.336 104.14C372.976 104.14 373.396 104.8 373.756 104.8C373.756 105.16 373.036 104.86 373.096 105.22L371.476 105.16L372.676 104.8C372.196 104.26 370.216 105.28 370.156 104.92C370.456 104.14 371.596 104.74 371.536 104.02L370.816 104.08C370.756 103.78 370.756 103.48 370.456 103.42C371.056 103.36 370.636 102.7 371.356 102.58C370.636 102.34 370.336 102.7 369.616 102.76L369.556 102.46C369.856 102.04 369.796 101.68 370.456 101.26L369.136 101.38C369.196 101.38 369.316 101.26 369.316 101.02C368.956 100.66 368.896 99.94 368.836 99.58L368.776 99.22L369.196 99.58L369.556 99.52L368.716 98.62L369.076 98.5C369.376 98.08 368.296 98.26 368.596 97.54C368.956 97.42 368.956 97.42 368.896 97.06C368.896 97.06 368.536 96.82 368.476 96.46C368.776 95.98 369.256 96.64 369.496 95.92L369.136 95.62L368.776 95.98C368.716 94.96 368.236 93.94 368.836 92.74L368.656 92.38L368.536 92.02L368.656 91.72C368.296 91.78 368.536 90.64 368.836 90.16V89.44L369.196 89.38C367.996 88.48 367.756 89.44 367.036 89.5C366.736 90.28 366.916 89.2 366.256 89.98C366.976 89.92 366.316 90.34 366.316 90.34L365.956 90.4C365.656 90.82 365.356 91.54 364.996 91.6L364.636 91.3C364.276 91.66 365.416 92.26 364.696 91.96L364.336 92.02C364.036 92.8 363.016 93.58 362.476 94.42L362.836 94.36L362.176 95.14C362.176 95.14 362.236 95.5 362.596 95.5C362.236 95.86 361.936 96.64 361.636 97C361.996 97.36 362.056 97.72 362.116 98.08C361.756 98.08 361.756 98.44 361.816 98.8H362.176C361.876 99.52 362.056 100.96 362.476 101.62L361.816 102.1V102.46H361.456C360.736 102.52 358.336 102.28 357.556 102.1C359.356 101.5 357.076 100.66 358.096 100.24C357.736 100.24 357.616 99.16 358.336 98.74C357.976 98.8 357.856 98.08 357.496 97.72C357.376 97.06 358.156 97.3 358.456 96.88L357.736 96.64C358.036 96.58 357.736 96.34 357.676 96.28C358.516 96.1 357.376 94.9 357.736 94.12C357.376 94.12 357.616 92.44 357.256 92.08L357.916 91.66L357.496 91.36V91C356.716 90.7 358.096 89.86 357.316 89.56C357.676 89.14 358.036 89.14 357.616 88.78C357.916 88.06 356.776 87.82 357.436 87.34C357.676 86.26 357.136 84.82 358.096 83.98C357.376 84.04 358.036 82.66 357.616 82.36L358.276 81.46L357.556 81.64C358.216 81.16 357.436 80.56 358.156 80.8C357.736 80.14 357.976 79.06 358.216 77.92C358.876 77.08 362.356 77.2 362.836 78.22ZM345.916 74.2C345.196 74.56 345.556 75.28 345.556 75.64V76C344.476 76.36 345.556 77.08 345.196 77.44C344.476 78.88 345.196 81.7 344.116 83.14V84.82C344.476 84.82 344.476 85.18 344.836 85.18L349.696 83.26C351.496 82.9 353.176 82.6 354.976 83.68C354.916 83.8 354.916 84.4 354.796 84.76C354.556 85.42 352.876 84.94 352.576 85.84C351.856 85.84 351.136 86.2 350.056 86.56L349.696 86.92V86.56C348.976 87.28 347.896 87.28 347.176 87.64L347.896 88C346.816 87.64 346.096 88.36 345.376 88.36C345.016 89.44 343.216 88.36 342.856 89.8C343.216 90.52 342.196 90.52 342.136 91.18C342.076 91.12 342.016 91 341.776 91.24H341.056C339.616 90.52 337.456 91.9 336.016 91.18C334.576 91.36 333.856 91.66 332.656 90.7C332.776 90.22 333.376 89.44 333.556 89.32C334.996 88.48 336.736 88.54 338.296 87.58C338.656 87.58 339.376 86.86 339.736 86.86L340.096 86.5C339.736 86.14 339.376 86.14 339.376 85.78L339.736 85.42C339.376 85.42 339.376 85.42 339.376 85.06C339.736 85.06 340.096 84.7 339.736 84.34C339.736 83.98 339.376 84.34 339.376 84.34C339.016 83.26 340.456 83.38 339.736 82.66C339.736 82.3 339.016 81.58 339.736 81.22C339.016 81.22 340.096 80.5 339.016 80.5C340.096 80.14 339.016 79 339.736 79L339.376 78.64L340.096 77.92H339.736C340.816 76.84 338.656 73.96 341.536 74.32C341.896 73.96 342.796 73.6 343.156 73.6C343.876 73.96 345.916 72.76 345.916 74.2ZM347.176 93.34C347.356 94.42 350.716 95.5 348.676 96.88C349.396 96.82 349.096 97.54 349.516 97.9C348.436 98.02 348.916 99.04 348.556 99.1L348.976 99.4L348.616 99.76C348.676 100.12 349.036 100.12 349.036 100.48C347.596 100.24 348.556 102.34 347.176 102.82C346.816 103.24 345.376 104.98 344.956 104.68C344.596 104.68 345.496 105.7 344.356 105.46L344.296 105.1L344.596 104.68C343.456 104.08 341.716 106.72 340.516 105.4C340.216 106.12 339.796 105.46 339.496 105.82L339.316 105.1C338.476 103.78 340.036 101.92 339.916 100.48C340.576 99.7 340.816 98.56 341.056 97.48C341.656 96.28 342.256 94.84 342.136 94.12C342.736 93.34 346.156 91.18 347.176 93.34ZM345.856 97.78C345.736 97.24 344.956 96.88 344.896 96.7C344.236 97.72 342.496 99.34 343.156 99.52C342.916 99.94 342.556 101.2 342.496 101.62L342.856 101.56V101.98C343.216 101.92 343.336 102.22 343.696 102.16C343.996 101.44 344.596 100.18 345.196 99.4C345.136 98.68 345.856 98.14 345.856 97.78ZM343.756 105.52C343.996 105.4 343.936 106.06 343.396 106.3L339.916 106.9C340.276 106.48 340.396 106.42 340.996 106.24L340.936 106.06C341.296 106.12 343.276 105.88 343.756 105.52ZM345.856 102.16L344.536 102.64C344.896 102.58 345.316 102.94 345.616 102.52L346.576 102.28L345.856 102.16ZM409.911 77.8C409.071 78.16 410.751 78.94 409.911 79.3C410.751 80.02 410.751 80.92 410.331 81.64C410.751 82 410.751 82 410.751 82.36C410.331 82.36 409.911 82.36 409.911 82.78C410.331 82.78 410.331 83.14 410.751 83.14L409.911 83.44C410.331 83.8 410.331 83.8 410.751 83.8C409.911 85.3 412.011 86.98 410.331 88.12L411.231 88.48C409.911 88.48 411.231 89.98 409.911 90.34L411.231 91.12C410.751 91.42 410.331 91.42 410.331 91.78C411.231 91.78 411.231 92.5 410.751 92.86H410.331C409.911 93.64 412.011 94.96 410.331 95.32C411.231 96.1 410.751 96.04 410.331 96.76C411.231 97.48 410.751 98.26 411.231 98.92C410.331 99.28 411.231 100.06 411.231 100.42C410.751 100.42 410.331 100.42 410.331 100.78C410.751 101.14 411.591 101.5 411.231 102.58C411.231 102.58 410.751 102.58 410.751 102.94C410.751 102.94 411.231 102.94 411.231 103.3C411.591 103.72 410.751 103.72 410.751 104.08L411.231 104.44C411.231 104.44 411.231 104.8 411.231 105.16H410.751C410.331 105.16 410.751 105.58 411.231 105.94C410.751 105.94 410.331 105.94 409.911 106.3C409.911 105.58 407.271 106.3 407.271 105.94L407.691 105.16C407.331 104.8 407.271 104.08 406.431 104.08C406.791 103.3 407.271 102.94 406.791 102.22L406.431 101.86C406.431 101.5 406.191 101.56 406.191 101.2L405.951 100.78C405.951 100.06 407.631 99.7 406.431 98.92H405.951C405.951 98.62 405.951 98.26 406.431 98.26L405.951 97.9C406.431 96.76 405.951 95.56 406.431 94.48L405.951 94.12C406.431 93.34 405.591 92.62 406.431 91.96C405.951 91.18 405.951 90.64 406.791 89.86C405.951 89.5 405.651 89.08 404.811 89.44C404.811 89.8 403.671 89.5 403.671 90.04C402.111 90.04 402.051 90.82 400.971 90.94C399.291 91.12 399.531 92.5 397.851 92.14L398.271 92.5C397.431 93.22 396.471 91.3 395.211 92.02L393.831 90.52C395.031 88.72 398.271 88.42 399.891 87.34C403.251 86.62 403.491 86.38 406.791 85.66C405.951 85.3 406.791 84.52 405.951 83.8C406.431 83.8 406.791 83.8 406.791 83.44H406.431C405.951 83.14 406.431 82 406.431 81.28C405.951 80.56 406.431 79.66 405.951 79.3C405.951 78.52 407.271 78.52 405.951 77.8C405.951 77.8 405.951 77.44 405.951 77.08C406.791 75.94 409.551 77.08 409.911 77.8ZM392.151 79.36C391.731 80.08 391.911 80.5 391.551 81.22L391.791 81.64V82C390.711 82.36 392.211 83.08 391.431 83.5C391.071 84.94 390.831 85.06 390.051 86.14C390.051 86.92 388.971 86.92 389.691 87.64C388.191 87.64 389.391 88.78 388.671 88.78V89.14C388.671 89.5 387.891 89.14 387.891 89.86C390.111 92.5 391.431 95.44 392.931 98.02C392.931 98.02 392.931 98.44 393.291 98.44V98.8C392.931 98.8 392.931 98.8 392.931 98.8C394.011 99.52 393.651 101.02 394.791 101.74L393.231 103.36C392.151 102.94 390.951 102.94 390.471 101.68C390.111 100.9 389.391 99.82 388.971 98.68C387.891 97.96 388.311 96.1 386.811 95.32C386.811 94.6 386.391 93.88 386.031 93.52C385.251 93.52 385.191 94.24 384.471 94.96C385.191 95.74 384.111 95.74 384.471 96.46C383.751 96.46 384.111 97.6 383.331 97.6C383.331 98.68 381.951 99.46 381.951 100.54H379.131C379.131 100.18 379.791 99.76 379.431 99.4H379.071C379.071 98.62 379.431 97.18 380.571 96.04C379.791 95.32 380.931 94.54 380.931 93.82C381.651 93.46 381.291 92.32 381.651 91.96C383.871 88.6 385.371 85.3 387.591 82.3C388.011 81.16 388.491 80.32 388.491 79.24C388.851 78.82 391.251 77.5 392.151 79.36ZM428.565 106.18C428.565 106.9 428.745 108.1 428.205 108.34C428.205 108.7 428.565 109.06 428.205 109.42L427.845 110.14C428.205 110.5 427.845 111.22 427.485 111.58C426.405 113.02 426.045 114.82 424.965 116.26C424.605 117.34 422.745 118.48 423.105 119.56C422.745 119.92 422.145 120.58 421.425 120.58C421.425 120.04 419.145 119.38 419.145 119.14C419.145 117.1 421.365 115.48 422.025 113.26C423.465 112.36 423.765 110.56 424.185 108.94C424.305 108.58 422.685 108.34 422.805 107.98C422.205 106.84 422.265 105.52 422.685 104.32C423.285 102.52 426.885 101.98 427.845 103C428.205 103.72 428.205 105.1 428.565 106.18ZM473.29 83.74C472.93 84.1 472.57 84.46 472.93 84.82L472.21 85.54C472.21 85.54 472.57 85.54 472.93 85.9C472.93 86.26 472.21 85.9 472.21 86.26C472.21 86.62 472.93 86.62 472.93 86.98L472.21 87.7C472.21 88.06 472.57 87.7 472.93 87.7L472.21 88.42C472.21 88.78 473.29 88.42 472.93 89.14L472.57 89.5C473.29 89.5 472.93 90.4 472.93 91.12C472.57 91.12 472.93 91.84 472.93 91.84V91.9C472.87 92.08 472.51 91.84 472.21 92.14C472.21 92.5 472.57 92.14 472.93 92.14C472.57 92.86 473.29 93.58 472.21 93.94C472.57 93.94 472.57 94.3 472.57 94.66C472.21 94.3 472.21 94.3 471.85 94.3V94.66C472.21 94.66 472.21 95.02 472.57 95.02C472.93 95.38 471.85 95.38 472.21 96.1L471.85 96.46C472.21 96.46 472.93 96.46 472.93 97.18C472.21 97.54 472.93 97.9 472.93 98.26C474.73 97.9 475.15 96.04 477.31 95.32C477.67 94.6 479.47 94.6 479.11 93.52C479.83 93.16 478.75 92.08 479.47 91.36L479.11 91V90.64C478.39 90.28 479.83 90.7 479.11 89.98V88.36C479.47 87.28 481.33 85.54 483.01 85.66C483.37 86.02 484.27 86.68 484.27 87.4L483.55 88.12C483.91 88.12 483.91 88.12 484.27 88.48C483.55 88.48 483.91 89.74 484.27 90.1C483.91 90.46 484.27 90.7 483.91 91.42C484.99 92.14 487.09 89.86 487.09 91.66C487.45 92.02 487.81 93.22 488.53 92.86C488.17 93.22 487.99 93.88 487.99 94.24C488.35 94.6 488.17 94.48 488.53 94.48L488.17 94.84C487.45 94.84 487.09 95.92 486.01 95.56C485.29 96.64 482.83 97.12 482.83 98.92C483.19 98.92 483.19 99.28 483.19 99.64H482.83L483.19 100C482.83 100 482.83 100 482.47 100.36L483.19 100.72C482.83 101.08 482.83 101.8 482.83 102.16L482.47 102.52L482.83 102.88L482.47 103.6C481.39 103.96 482.83 104.14 482.11 104.86C482.11 105.94 482.11 107.56 481.39 107.92C481.15 108.16 481.09 108.28 481.03 108.58L481.75 108.64L481.69 108.94C481.15 109.66 481.33 109.42 480.61 110.14L481.03 110.44C480.31 111.16 478.87 112.48 479.23 113.92C478.87 113.92 477.55 113.2 476.83 113.92L477.91 114.28C477.55 114.28 477.19 114.64 476.83 114.64C477.19 114.28 476.11 114.28 475.75 114.28L475.39 114.64H474.67L475.39 114.28C475.03 113.92 475.03 114.28 474.67 114.28C474.31 115 473.59 114.28 473.59 115C473.59 115.36 474.31 115.36 474.67 115.36C473.59 116.08 473.23 114.28 472.15 114.64C472.15 114.64 472.09 114.4 472.45 114.4C471.37 113.68 471.07 114.64 470.35 113.92L469.99 114.28L471.07 114.64C470.35 115 469.39 114.28 468.67 114.64L468.31 113.56L468.67 113.2C467.23 113.2 467.11 110.08 465.31 111.52L466.03 110.44L466.27 110.26C466.63 110.26 466.75 110.44 466.75 110.08C466.39 109.36 464.95 109.36 465.67 108.28C466.75 107.56 465.67 105.58 467.47 105.22C467.83 103.78 468.91 102.34 470.35 101.62L469.63 100.9C469.27 100.18 469.27 101.62 468.91 100.9C468.55 100.18 469.63 99.1 468.19 99.1L468.91 98.74C468.55 98.02 468.19 97.66 467.83 97.3C468.55 96.94 467.83 96.58 467.83 96.22L468.55 94.78L468.19 94.42C468.19 94.78 468.19 94.78 467.83 94.78C467.83 94.06 468.19 93.7 467.83 92.98C468.19 92.98 468.55 92.62 468.19 92.26L468.55 91.9L467.83 91.18C468.55 90.82 467.47 90.28 468.19 89.56C468.19 89.56 468.55 89.56 468.55 89.2C468.55 88.84 468.19 89.2 467.83 88.84L468.55 88.48C468.55 88.12 468.55 87.76 468.19 88.12V87.4C468.55 87.76 468.55 87.4 468.55 87.4C468.55 87.04 468.19 87.04 468.19 87.04C468.19 86.32 468.55 85.96 468.55 85.24C469.27 84.16 471.25 82.66 472.69 82.3C472.93 82.66 473.41 82.96 473.71 83.02C472.93 83.14 473.89 83.74 473.29 83.74ZM482.41 67.24C480.97 68.32 483.13 69.94 482.05 71.02C481.69 71.02 481.69 71.98 481.69 71.98C481.69 72.34 482.05 71.98 482.05 71.98C482.05 72.7 481.33 74.14 481.69 74.86C480.61 75.22 481.69 75.7 480.97 76.42C481.33 76.42 481.33 77.14 481.33 77.14H480.97L480.61 77.5C480.61 77.86 480.97 77.86 481.33 78.22C480.97 78.58 480.25 78.58 480.61 78.94C480.97 79.3 480.97 79.66 480.97 80.02C480.25 80.02 480.61 80.74 480.25 81.1H480.61C480.25 81.82 479.17 81.46 479.53 82.18H479.89C479.89 82.9 479.17 82.18 478.81 82.9C479.17 82.9 479.53 83.26 479.53 83.62L477.07 83.98C476.71 83.62 477.79 82.9 477.07 82.54V82.18C477.07 81.82 477.07 82.18 476.71 82.18C477.43 81.1 476.35 80.38 477.07 79.66C476.35 79.3 477.43 78.94 476.71 78.58C476.71 78.22 477.79 77.74 477.07 77.02C476.71 77.02 477.07 76.66 477.07 76.3C477.07 76.3 477.43 76.3 477.43 75.94C475.99 75.22 478.15 74.5 477.43 73.42C477.79 73.42 477.79 73.06 478.15 73.06C475.99 71.98 474.67 74.14 472.87 74.5C471.43 74.86 469.75 75.46 468.31 76.18L466.75 75.04C468.19 72.88 471.79 71.32 474.31 70.6C475.75 69.52 477.79 70.72 477.79 68.2C478.51 67.12 481.69 65.44 482.41 67.24ZM465.67 72.52C464.23 73.6 461.59 72.22 460.87 74.38C460.15 74.38 459.85 75.04 459.85 75.76C458.41 77.2 457.03 78.58 457.39 80.38C456.67 80.38 457.75 81.1 457.03 81.46C457.39 82.18 457.45 82.54 458.53 82.9C460.69 82.9 461.71 81.46 462.79 80.02C462.61 79.18 462.97 78.76 462.79 77.86C462.43 77.5 462.43 77.14 462.43 77.14C462.79 76.78 461.71 76.42 462.43 76.06C462.07 75.7 461.89 75.52 461.17 75.16C461.89 74.8 462.13 73.66 462.49 73.3C464.29 73.3 465.49 75.34 466.21 76.06C466.93 77.5 464.77 77.86 466.21 78.94C465.13 78.94 465.85 80.38 465.13 80.74C464.41 82.54 461.47 84.22 459.79 85.06C457.63 85.06 454.63 85.54 454.21 84.1C453.85 84.1 453.85 83.74 453.13 84.1C453.13 83.38 453.85 84.1 453.85 83.38C453.49 83.38 453.85 82.54 453.13 82.54C453.85 77.86 457.75 74.68 460.99 71.8C462.07 71.44 464.29 70.06 465.01 70.78C464.95 71.5 465.31 72.16 465.67 72.52ZM478.57 100.24C476.41 100.6 476.59 101.92 475.15 103C473.71 103.36 473.65 104.92 472.21 105.64H472.57L471.85 106C471.49 106.72 471.13 106.3 470.77 107.02C469.69 107.38 470.77 109.18 470.05 109.18C470.41 110.26 470.77 110.8 471.85 111.16C473.29 111.52 474.13 112.06 475.57 110.98C477.37 110.62 476.05 109.84 477.49 109.12H477.13C476.77 109.12 477.13 108.76 476.77 108.4L477.13 108.04C477.13 108.04 477.49 107.68 477.13 107.32L477.85 106.6C477.49 106.24 477.85 105.88 477.85 105.88C476.77 105.88 478.21 105.04 477.85 104.68C477.85 103.96 477.85 103.84 478.57 103.12H478.21C477.85 103.12 477.85 102.76 477.85 102.76C478.21 102.4 478.21 102.04 478.57 102.04C478.57 101.32 478.57 102.04 478.21 101.68C477.85 100.6 478.93 101.32 478.93 100.96C478.57 100.6 478.57 100.6 478.57 100.24ZM472.93 91.78C473.29 91.42 472.93 92.14 472.93 91.9V91.78ZM517.956 95.08C518.376 95.08 517.956 97.78 517.476 97.72C517.476 97.72 517.056 97.66 516.936 98.08L515.676 98.38C514.656 99.1 512.076 99.52 510.336 99.76C507.936 101.2 504.216 100.66 501.876 102.1C501.036 102.04 499.356 102.58 498.936 102.88C497.076 103.54 494.976 103.42 493.176 103.66C492.996 102.4 494.556 100.42 495.516 99.64C497.676 99.52 500.316 98.08 502.536 97.96C503.436 97.24 503.196 96.46 503.256 95.62C503.016 94.36 503.616 93.16 502.896 92.14C504.696 91.54 502.656 90.04 504.096 89.32C503.916 87.52 504.996 86.14 504.816 84.46C504.816 84.04 504.936 83.14 505.476 82.84C504.696 82.24 505.956 81.94 505.656 81.1L504.996 81.04C505.356 81.04 505.656 81.04 505.656 80.68C505.296 80.2 504.876 80.14 504.456 80.14C504.456 80.56 504.876 80.56 504.456 80.56C503.916 81.34 502.656 80.68 501.876 80.2C501.876 80.2 501.396 80.56 501.756 81.04L502.176 81.1C500.916 81.34 500.676 81.28 499.296 81.46C498.396 82.24 495.936 82.18 494.136 82.84C493.656 83.62 492.996 84.82 492.156 85.18C491.736 84.7 490.356 84.34 490.416 83.44C495.036 77.8 503.436 77.44 510.036 76.18C510.036 76.6 510.816 76.66 510.816 77.08C510.756 77.5 510.276 77.5 509.856 77.44L510.156 78.4C510.156 78.4 509.796 78.88 509.736 79.36C510.576 79.42 509.616 80.14 510.396 80.62L509.496 80.98L509.856 81.4L509.376 81.76C509.736 82.24 509.736 82.66 510.096 83.2C508.716 83.38 509.496 84.4 509.376 85.24C509.256 86.5 508.656 87.7 508.896 89.02L508.476 89.44L508.836 89.86C507.876 90.22 508.656 90.7 508.596 91.12C508.596 91.54 508.176 91.48 508.176 91.48C508.536 91.96 508.536 91.96 507.936 92.74C507.936 93.16 508.356 93.28 508.836 93.34L507.876 93.64L507.936 96.46C510.516 96.34 512.496 95.38 515.136 95.26C515.616 94.48 517.236 95.08 517.956 95.08ZM532.236 78.28C532.596 79 533.316 80.56 533.676 80.92L533.316 81.28C532.596 81.64 532.596 82 531.876 82.36L532.596 82.72C531.156 83.44 530.856 83.8 530.136 85.24L529.416 85.6C529.416 86.32 528.336 85.96 528.336 87.04C527.256 87.04 527.736 87.52 526.656 87.88C526.656 88.6 525.576 88.6 525.216 88.96L525.576 89.32C525.216 89.32 525.036 89.32 525.036 89.68C525.756 90.4 526.836 89.68 527.556 89.68C528.636 90.04 530.016 89.74 530.736 91.18C531.096 92.26 531.816 93.7 531.456 94.42H530.736L531.096 94.78L530.736 95.14C530.736 95.5 530.736 96.04 531.096 96.04C530.376 97.12 529.536 97.12 529.896 98.56C529.536 99.28 528.516 99.22 528.876 100.3C528.516 99.94 528.576 100.3 528.216 100.3C528.576 100.66 528.516 100.66 528.876 100.66C528.516 101.02 527.436 101.38 528.156 102.1H527.796V102.46C530.316 102.1 532.356 101.02 535.236 101.02C535.236 101.38 535.956 101.38 535.596 101.74C535.236 101.74 535.236 101.38 534.876 101.74L535.596 102.1C535.596 102.46 534.696 104.74 535.416 104.74C534.336 104.74 532.536 105.1 533.256 105.82C532.896 105.82 532.536 106.18 532.176 106.54C530.376 106.54 526.356 107.98 524.556 106.9L523.476 107.26C523.836 106.9 523.776 106.12 524.496 106.48C523.776 106.12 523.416 105.4 522.696 105.76L523.416 105.4L522.696 105.04C523.776 103.24 524.496 100.72 525.936 99.28C525.936 98.56 526.656 97.84 526.656 97.12C527.376 96.04 526.896 95.8 527.616 95.08C527.616 94.36 526.896 94.36 526.536 94C525.456 93.64 524.436 94.3 523.356 93.58C523.356 94.3 522.216 93.94 521.856 93.94C521.136 93.22 520.776 93.94 520.416 93.58C520.776 92.86 519.696 93.22 519.696 92.5H520.056C520.056 92.14 519.696 92.14 519.696 92.14C520.056 91.42 521.316 89.92 521.676 88.84C524.196 86.32 526.296 84.64 528.816 82.12C528.096 81.04 527.196 81.76 525.756 81.4C523.596 81.76 522.756 80.44 520.596 80.44C520.536 76.54 523.896 78.46 525.816 77.92C527.976 78.28 530.436 77.2 532.236 78.28ZM555.636 83.26L554.916 83.62C555.276 83.98 555.636 83.98 555.996 83.62C556.356 84.34 555.996 85.06 556.716 85.78C555.996 86.14 555.996 85.42 555.636 85.78C556.356 85.78 555.996 86.86 556.716 86.86L556.356 87.58C555.996 87.58 555.996 87.22 555.636 87.58L556.716 88.3C556.356 88.3 556.356 88.3 555.996 88.66C556.716 88.66 555.996 89.38 556.356 89.74C555.996 89.38 555.996 89.74 555.996 89.74C555.996 89.74 555.996 89.74 555.996 90.1H556.356C555.996 90.46 556.356 90.46 556.716 90.82C555.636 91.18 556.716 91.54 556.356 91.54C557.076 92.26 555.636 93.34 556.356 94.06V94.42C556.356 94.42 555.996 94.42 555.996 94.78C555.996 95.14 556.356 95.86 556.716 96.22L555.636 96.58C555.996 96.58 556.716 97.24 556.356 97.96V98.32H555.996C555.636 98.32 555.996 98.68 556.356 99.04C556.716 99.4 555.996 99.4 555.996 99.4C556.356 99.76 556.716 100.12 556.356 100.48L555.636 100.84C555.276 101.2 553.116 100.48 552.756 100.48C552.756 100.12 552.756 99.76 552.396 99.76C553.476 98.68 552.036 97.3 552.396 96.22C552.756 95.86 552.396 95.14 552.396 94.42C552.396 94.42 552.756 94.78 553.116 94.42C552.396 94.42 553.116 93.7 552.396 93.7C552.036 92.26 552.756 91.54 552.036 90.46L552.396 89.74L552.036 89.38L552.396 88.66H552.036C552.396 88.3 551.676 87.58 552.396 87.58C552.756 86.86 550.956 86.14 552.396 85.42L551.676 85.06C552.036 83.62 552.276 80.8 553.896 80.86C554.676 80.92 555.276 82.54 555.636 83.26ZM546.816 83.38C546.096 84.1 547.716 84.64 547.776 85.36C547.896 86.38 547.956 87.28 547.776 88.18L548.136 88.54C547.776 88.54 547.416 88.54 547.416 88.9C547.776 88.9 547.776 90.58 547.776 90.58V91C548.136 91.36 548.136 91.36 547.776 91.72C547.776 92.08 548.136 92.08 548.136 92.44C548.136 92.44 547.776 92.08 547.776 92.44H547.416L547.776 92.8L547.416 93.16C548.136 93.88 547.776 94.48 547.776 95.2H547.416L547.776 95.56C547.056 95.92 548.136 96.7 547.776 97.06L547.536 97.24L547.296 97.72L545.736 98.08C545.616 97.42 544.536 97.36 544.176 96.64L544.896 95.92C544.536 95.92 544.176 95.92 544.176 95.56L544.536 94.84C543.456 94.48 544.176 92.44 544.176 91.72C544.536 91.72 544.536 91.72 544.536 91.36C543.816 91 544.176 91 544.176 90.64C541.296 91 539.436 92.02 536.556 92.02C535.836 92.38 534.756 92.38 534.396 92.74V93.1C534.396 93.1 533.796 92.62 533.436 92.62C532.716 92.26 533.256 90.94 532.896 90.22C534.696 87.7 537.696 88.18 540.576 87.46C540.936 86.74 541.656 87.46 542.376 87.1C542.376 87.82 542.736 88.18 543.096 87.82C544.536 87.46 543.096 86.02 544.536 86.02C544.176 86.02 544.176 85.36 544.176 85C544.296 83.8 546.096 82.3 546.816 83.38ZM576.405 84.22L576.285 85.24C574.905 85.24 573.585 84.34 572.685 85.24C571.785 85.72 572.025 86.26 572.505 86.8C573.885 87.7 573.345 89.62 573.825 90.94V91.42C574.245 92.32 574.725 93.22 574.245 94.54C573.585 97.18 570.765 98.5 568.545 98.92C567.645 98.02 565.065 98.92 564.585 97.12C564.585 96.64 564.165 96.22 564.165 95.74C564.165 95.32 564.165 95.32 564.165 95.32C564.165 94.84 564.585 94.12 564.165 93.64C564.585 89.62 567.885 85.24 571.065 82.54C572.385 81.16 575.625 81.64 576.405 84.22ZM570.585 92.8V90.1C570.165 89.68 570.765 88.48 569.865 88.48C568.965 89.38 568.245 90.1 568.245 91C566.925 92.38 567.825 93.7 566.925 94.6C567.825 96.04 568.365 94.42 569.685 94C570.165 93.52 569.685 92.8 570.585 92.8ZM590.625 77.32L590.925 77.62C590.625 78.04 590.265 77.68 590.325 78.4C590.925 77.98 591.585 78.76 591.585 79.48C591.585 79.48 591.585 79.84 591.285 79.78C591.345 80.5 591.945 80.5 591.585 81.28L591.345 81.58C591.945 81.58 591.045 82.3 591.645 82.78L591.345 82.72C591.945 83.08 591.705 84.16 591.705 84.52L591.045 84.88C592.005 85.24 590.445 86.02 591.765 85.96L591.585 87.64H591.165C590.805 87.64 591.165 88 591.105 88.36L591.465 88.54L591.285 88.78C591.285 89.14 591.465 89.14 591.765 89.08L591.465 89.5L591.165 89.44L590.865 89.8C591.765 90.52 590.565 91.3 591.525 92.02C591.165 92.32 591.225 93.28 591.225 93.64C591.225 94.06 590.565 94.06 590.925 94.36L591.225 94.42C591.225 95.86 591.585 96.58 590.625 97.72L590.925 97.66C591.585 98.02 590.025 98.44 590.985 99.1L590.025 99.52C590.385 100.24 590.985 99.46 590.985 99.82L590.025 100.96C590.325 100.96 590.685 100.9 590.685 100.9C590.745 101.26 590.385 101.68 590.085 101.68L590.385 102.04C589.425 102.7 588.345 102.46 587.745 102.04C587.445 101.74 588.045 101.02 587.385 101.02H587.085C587.385 99.58 586.425 98.92 586.725 97.42L586.425 96.88C587.025 96.1 586.065 94.96 586.365 93.94C585.405 92.86 587.265 92.44 586.305 91.78C585.645 90.52 586.425 91 586.605 90.7C586.845 90.22 585.945 89.92 585.945 89.56L586.605 89.62C585.945 89.2 586.905 88.84 586.185 88.12C586.245 87.76 586.245 87.16 586.545 86.86C586.545 86.86 585.885 86.44 586.185 86.08L586.545 85.78C586.545 85.12 586.725 84.82 586.425 82.48C586.845 82.48 587.085 81.7 587.385 81.7H586.785C586.905 81.16 587.205 81.52 587.025 80.98L586.785 80.62C586.725 80.32 587.085 80.62 587.025 80.26L586.425 79.54C586.665 79.24 586.965 79 587.385 78.64C587.025 77.92 586.065 79.36 586.425 78.28C586.725 78.34 586.665 77.86 587.025 77.44C587.025 77.08 586.665 77.14 586.365 77.08L586.605 76.84L587.265 76.72C587.265 76 586.665 76.78 586.665 76.06C587.565 75.64 589.665 76.96 590.625 77.32ZM626.424 95.38L628.644 97.12C628.104 97.78 629.004 98.86 628.944 99.22L627.504 99.88L627.984 100.24C627.444 100.6 625.764 98.2 625.164 100.06L624.804 100.24C622.944 100.12 622.164 100.6 620.304 100.42C619.884 100.84 619.404 100.78 618.444 100.72C618.024 100.24 617.004 101.32 616.104 101.26L613.764 101.44C614.124 102.22 615.144 101.2 615.024 102.34C614.484 102.16 614.784 102.22 614.124 102.22C612.744 102.16 610.824 102.34 609.924 102.64C609.024 101.86 608.064 102.52 607.104 102.4L608.064 102.52L607.524 102.82C608.004 103.3 608.004 103.3 608.424 103.3L608.904 102.94C608.364 104.02 607.044 102.76 606.144 103.12L605.724 102.7C605.184 103.06 606.084 104.2 605.184 103.42C604.704 103.36 604.644 103.72 604.644 103.72C604.224 104.08 604.224 103.72 603.804 103.3C604.284 103.36 604.224 103.72 604.284 103.36C604.704 103.36 604.284 103 604.284 103C603.324 103.3 602.904 102.46 602.364 103.54C602.364 103.9 602.784 103.6 603.264 103.66C603.264 103.9 603.264 104.02 603.384 104.02C602.724 104.26 601.584 105.28 600.864 104.62C600.864 104.62 600.864 104.2 601.344 104.2C600.504 103.78 599.364 104.8 598.584 104.2C597.204 103.12 597.744 102.22 598.284 101.56C599.784 99.82 603.504 100.12 606.384 99.16C612.984 97.84 619.404 95.2 626.424 95.38ZM620.904 74.92C620.184 75.22 618.624 75.16 617.784 75.4C616.944 75.76 616.104 75.94 615.264 76.18C614.484 76.3 613.764 76.6 612.984 76.66C608.844 78.1 604.284 78.7 600.084 80.14C598.464 79.84 598.344 79.78 598.044 78.94C598.884 77.92 601.764 76.66 603.384 75.94C606.864 75.22 609.804 74.14 612.924 73.42C615.504 72.7 619.824 72.94 620.904 74.92ZM618.084 89.98L616.404 90.1C615.564 90.1 614.484 90.58 613.344 90.52C612.144 91.6 609.984 90.82 608.364 91.9C606.444 92.68 603.504 93.76 601.164 92.98L601.104 92.56L600.384 92.92L599.964 92.62C600.084 92.2 600.864 92.2 600.804 91.84L600.384 91.42C600.444 91 600.864 91.06 600.864 90.7C600.384 89.92 601.644 88.18 601.344 87.4C603.264 83.98 604.164 79.72 608.844 78.52C608.844 78.52 610.464 78.46 610.824 78.46C610.404 79.6 608.904 79.96 608.904 81.1C608.484 81.1 608.484 81.1 608.064 81.46C609.144 81.88 607.644 81.82 608.064 82.6L606.924 83.74L607.284 84.16C606.864 84.52 606.744 84.88 606.384 86.02L606.684 86.74C606.324 86.74 606.324 86.74 606.324 86.38C606.324 86.38 605.964 85.96 605.904 86.32C605.964 86.32 606.084 88.18 605.904 88.48C605.184 88.48 606.324 88.9 605.544 89.2C607.764 89.68 608.604 88.18 611.364 87.88C612.084 87.16 613.584 87.58 614.304 86.8C616.644 86.44 618.924 86.68 620.784 87.1C621.984 87.64 620.424 89.14 620.004 89.56C618.864 89.86 619.224 89.62 618.084 89.98ZM676.547 78.22C675.527 78.7 676.307 79.36 675.287 79.84L676.007 80.08C676.007 80.08 675.707 80.14 675.707 80.5L676.067 80.44L675.047 80.92L676.127 81.16C675.107 81.64 675.887 82.3 675.947 82.66C676.367 82.96 675.047 83.5 675.467 84.16C676.007 85.54 675.287 85.36 675.767 86.44C675.107 86.86 675.887 87.52 675.947 87.88L676.667 87.76C678.287 86.14 679.487 86.5 681.167 85.24L682.547 84.7C682.547 84.7 682.487 84.34 682.127 84.04C682.847 83.92 682.007 83.68 682.667 83.5L682.247 83.08C683.267 82.18 681.407 82.18 682.427 81.34C682.367 81.04 682.367 80.68 682.007 80.68L682.667 80.2C681.887 79.96 682.247 79.18 682.187 78.82C683.267 78.64 686.807 78.58 687.647 79.6C687.287 79.6 687.287 79.6 686.927 79.66C687.287 79.96 687.287 79.96 687.647 79.96L686.987 80.38C687.707 80.32 687.767 80.68 687.767 80.98C687.827 81.34 686.747 81.46 687.167 82.18C687.227 82.54 687.587 82.48 687.947 82.42C688.007 83.14 687.587 82.84 687.287 83.26L687.647 83.2C687.047 83.98 687.167 84.76 687.287 85.84C687.347 86.2 687.047 87.76 687.047 88.12C686.867 89.26 686.867 89.44 686.867 89.98L687.287 90.7L686.567 90.76L686.927 91.06H687.287C686.987 91.42 687.467 92.08 686.807 92.56C687.947 93.16 686.567 93.64 686.987 94.36C687.107 95.38 687.587 96.46 686.927 97.24L687.347 97.54C687.407 97.9 686.687 97.96 687.047 98.32L686.747 98.68C687.167 99.04 687.227 99.76 686.927 100.48L686.567 100.54C686.987 101.2 687.767 101.5 687.527 101.86C687.167 101.92 687.047 101.56 686.807 101.98C687.167 101.92 686.927 103.06 687.647 102.94L687.287 103.36H687.527C687.287 103.42 687.287 103.72 686.987 103.78C687.407 104.08 687.347 103.72 687.767 104.02C687.407 104.44 687.407 104.08 687.047 104.14C686.687 104.14 687.107 104.8 687.467 104.8C687.467 105.16 686.747 104.86 686.807 105.22L685.187 105.16L686.387 104.8C685.907 104.26 683.927 105.28 683.867 104.92C684.167 104.14 685.307 104.74 685.247 104.02L684.527 104.08C684.467 103.78 684.467 103.48 684.167 103.42C684.767 103.36 684.347 102.7 685.067 102.58C684.347 102.34 684.047 102.7 683.327 102.76L683.267 102.46C683.567 102.04 683.507 101.68 684.167 101.26L682.847 101.38C682.907 101.38 683.027 101.26 683.027 101.02C682.667 100.66 682.607 99.94 682.547 99.58L682.487 99.22L682.907 99.58L683.267 99.52L682.427 98.62L682.787 98.5C683.087 98.08 682.007 98.26 682.307 97.54C682.667 97.42 682.667 97.42 682.607 97.06C682.607 97.06 682.247 96.82 682.187 96.46C682.487 95.98 682.967 96.64 683.207 95.92L682.847 95.62L682.487 95.98C682.427 94.96 681.947 93.94 682.547 92.74L682.367 92.38L682.247 92.02L682.367 91.72C682.007 91.78 682.247 90.64 682.547 90.16V89.44L682.907 89.38C681.707 88.48 681.467 89.44 680.747 89.5C680.447 90.28 680.627 89.2 679.967 89.98C680.687 89.92 680.027 90.34 680.027 90.34L679.667 90.4C679.367 90.82 679.067 91.54 678.707 91.6L678.347 91.3C677.987 91.66 679.127 92.26 678.407 91.96L678.047 92.02C677.747 92.8 676.727 93.58 676.187 94.42L676.547 94.36L675.887 95.14C675.887 95.14 675.947 95.5 676.307 95.5C675.947 95.86 675.647 96.64 675.347 97C675.707 97.36 675.767 97.72 675.827 98.08C675.467 98.08 675.467 98.44 675.527 98.8H675.887C675.587 99.52 675.767 100.96 676.187 101.62L675.527 102.1V102.46H675.167C674.447 102.52 672.047 102.28 671.267 102.1C673.067 101.5 670.787 100.66 671.807 100.24C671.447 100.24 671.327 99.16 672.047 98.74C671.687 98.8 671.567 98.08 671.207 97.72C671.087 97.06 671.867 97.3 672.167 96.88L671.447 96.64C671.747 96.58 671.447 96.34 671.387 96.28C672.227 96.1 671.087 94.9 671.447 94.12C671.087 94.12 671.327 92.44 670.967 92.08L671.627 91.66L671.207 91.36V91C670.427 90.7 671.807 89.86 671.027 89.56C671.387 89.14 671.747 89.14 671.327 88.78C671.627 88.06 670.487 87.82 671.147 87.34C671.387 86.26 670.847 84.82 671.807 83.98C671.087 84.04 671.747 82.66 671.327 82.36L671.987 81.46L671.267 81.64C671.927 81.16 671.147 80.56 671.867 80.8C671.447 80.14 671.687 79.06 671.927 77.92C672.587 77.08 676.067 77.2 676.547 78.22ZM659.627 74.2C658.907 74.56 659.267 75.28 659.267 75.64V76C658.187 76.36 659.267 77.08 658.907 77.44C658.187 78.88 658.907 81.7 657.827 83.14V84.82C658.187 84.82 658.187 85.18 658.547 85.18L663.407 83.26C665.207 82.9 666.887 82.6 668.687 83.68C668.627 83.8 668.627 84.4 668.507 84.76C668.267 85.42 666.587 84.94 666.287 85.84C665.567 85.84 664.847 86.2 663.767 86.56L663.407 86.92V86.56C662.687 87.28 661.607 87.28 660.887 87.64L661.607 88C660.527 87.64 659.807 88.36 659.087 88.36C658.727 89.44 656.927 88.36 656.567 89.8C656.927 90.52 655.907 90.52 655.847 91.18C655.787 91.12 655.727 91 655.487 91.24H654.767C653.327 90.52 651.167 91.9 649.727 91.18C648.287 91.36 647.567 91.66 646.367 90.7C646.487 90.22 647.087 89.44 647.267 89.32C648.707 88.48 650.447 88.54 652.007 87.58C652.367 87.58 653.087 86.86 653.447 86.86L653.807 86.5C653.447 86.14 653.087 86.14 653.087 85.78L653.447 85.42C653.087 85.42 653.087 85.42 653.087 85.06C653.447 85.06 653.807 84.7 653.447 84.34C653.447 83.98 653.087 84.34 653.087 84.34C652.727 83.26 654.167 83.38 653.447 82.66C653.447 82.3 652.727 81.58 653.447 81.22C652.727 81.22 653.807 80.5 652.727 80.5C653.807 80.14 652.727 79 653.447 79L653.087 78.64L653.807 77.92H653.447C654.527 76.84 652.367 73.96 655.247 74.32C655.607 73.96 656.507 73.6 656.867 73.6C657.587 73.96 659.627 72.76 659.627 74.2ZM660.887 93.34C661.067 94.42 664.427 95.5 662.387 96.88C663.107 96.82 662.807 97.54 663.227 97.9C662.147 98.02 662.627 99.04 662.267 99.1L662.687 99.4L662.327 99.76C662.387 100.12 662.747 100.12 662.747 100.48C661.307 100.24 662.267 102.34 660.887 102.82C660.527 103.24 659.087 104.98 658.667 104.68C658.307 104.68 659.207 105.7 658.067 105.46L658.007 105.1L658.307 104.68C657.167 104.08 655.427 106.72 654.227 105.4C653.927 106.12 653.507 105.46 653.207 105.82L653.027 105.1C652.187 103.78 653.747 101.92 653.627 100.48C654.287 99.7 654.527 98.56 654.767 97.48C655.367 96.28 655.967 94.84 655.847 94.12C656.447 93.34 659.867 91.18 660.887 93.34ZM659.567 97.78C659.447 97.24 658.667 96.88 658.607 96.7C657.947 97.72 656.207 99.34 656.867 99.52C656.627 99.94 656.267 101.2 656.207 101.62L656.567 101.56V101.98C656.927 101.92 657.047 102.22 657.407 102.16C657.707 101.44 658.307 100.18 658.907 99.4C658.847 98.68 659.567 98.14 659.567 97.78ZM657.467 105.52C657.707 105.4 657.647 106.06 657.107 106.3L653.627 106.9C653.987 106.48 654.107 106.42 654.707 106.24L654.647 106.06C655.007 106.12 656.987 105.88 657.467 105.52ZM659.567 102.16L658.247 102.64C658.607 102.58 659.027 102.94 659.327 102.52L660.287 102.28L659.567 102.16ZM712.042 74.56C712.342 75.16 711.322 75.28 711.322 75.64C710.542 75.94 710.002 74.8 709.282 75.16C709.282 75.52 709.642 75.58 710.122 75.64C710.362 77.38 712.282 75.82 712.462 78.04C712.042 77.98 712.042 77.98 712.042 77.98C711.982 78.94 712.702 79 712.702 79.3C711.262 80.02 712.162 80.98 711.142 81.76H711.502C711.442 82.06 710.722 82 711.022 82.6C709.162 83.56 709.882 85.6 707.542 86.56C706.342 87.82 702.922 89.08 701.002 87.58C700.582 87.16 700.342 86.02 699.862 85.66C699.202 84.16 700.402 82.18 700.462 81.04C700.942 80.26 701.542 79.12 702.562 78.28V77.92C702.562 77.92 702.562 77.92 702.982 77.62C701.842 76.12 704.122 75.52 704.602 74.8C706.402 73.72 710.722 72.22 712.042 74.56ZM707.422 78.4L707.902 78.04L706.882 77.62C705.442 77.86 705.262 79.9 704.662 81.16C704.062 81.52 704.542 82.36 703.942 83.32C703.882 83.68 703.282 84.94 704.182 85C703.642 85.36 703.642 85.36 703.642 85.36C705.502 85.12 705.922 82.96 706.822 82.24C706.882 81.88 707.002 80.62 708.022 80.32C708.142 79.84 706.762 79.72 707.782 79L707.422 78.4ZM710.062 94.66C710.422 94.78 710.842 95.68 710.782 96.04L710.362 96.4L711.022 96.76C709.762 97.72 712.102 98.92 710.902 99.16V100.24C710.482 100.24 710.542 100.6 710.482 100.96C710.482 101.32 710.902 100.96 711.262 101.08L710.842 101.68C711.502 102.16 711.622 101.86 712.342 101.92C713.542 101.32 713.482 102.22 714.322 101.56C715.042 101.68 715.642 101.38 716.362 101.44L716.002 101.8C715.882 102.16 716.242 102.16 716.602 102.22C716.362 101.44 717.742 102.4 717.862 101.68C719.302 101.44 721.642 101.98 722.542 102.88C722.122 103.12 722.002 103.6 722.002 103.96C722.662 104.08 721.882 104.32 721.882 104.32C721.582 104.32 720.862 104.68 720.862 104.68C720.442 104.56 720.142 104.14 719.782 104.14C719.662 105.28 718.642 104.44 718.282 104.68L718.582 105.16C717.802 105.4 716.062 104.8 715.942 105.52L714.742 106.12L715.222 105.46C714.502 104.98 713.782 105.64 713.302 105.94V106.3C711.802 106.18 711.862 106.42 710.782 105.94C710.422 106.18 710.422 106.18 710.302 106.54L710.662 106.66C710.302 106.9 710.302 106.9 709.942 106.54C708.502 106.36 707.362 106.6 706.282 106.84V107.2C704.182 105.88 703.102 108.7 701.362 107.74C699.802 108.64 698.242 108.1 696.682 108.64C695.602 108.52 694.402 107.62 693.322 107.5C692.662 107.02 692.722 106.36 693.142 105.7C695.122 104.44 697.702 103.9 699.922 103.84C700.762 102.76 701.962 102.94 703.102 103.12C704.242 102.52 706.642 103.12 706.342 101.68L706.402 101.32C706.822 101.32 706.822 101.32 706.822 101.32C706.822 101.32 707.182 101.38 707.242 101.02C706.882 100.96 706.882 100.96 706.462 100.96C706.882 100.6 706.522 100.6 706.522 100.6C706.522 100.24 706.582 99.88 706.582 99.88C706.582 99.88 706.522 98.86 706.102 99.22C706.162 98.8 706.522 98.5 706.522 98.5C706.582 98.14 706.282 97.42 706.282 97.42L706.642 97.06C705.922 96.94 706.822 95.98 705.682 95.86C706.042 95.86 706.222 95.08 705.922 94.24C706.042 93.52 706.162 91.3 707.302 91.12C708.022 91.6 710.662 92.86 710.062 94.66ZM702.922 90.4C703.702 91.54 701.662 91.84 702.382 92.62L702.142 92.98C702.502 92.98 702.442 93.7 702.082 93.76C701.422 94.12 702.562 94.78 701.842 95.2L701.902 95.92C701.182 95.98 702.682 97 701.602 97.12C701.602 97.48 701.962 98.02 702.022 98.38H701.662L702.022 98.74H701.662C701.302 99.64 702.502 100.24 701.782 100.96C701.782 100.96 702.142 100.96 702.142 101.32H701.782C701.422 101.44 701.782 101.86 702.082 102.22L699.622 102.46C700.042 101.68 699.022 101.98 698.902 101.26H698.362C699.142 100.9 698.002 100.9 698.362 100.54C697.942 99.88 698.302 98.68 697.822 98.02C698.482 96.88 697.822 96.28 698.122 95.5C698.362 94.72 698.482 94.36 698.662 93.58C698.662 92.5 699.502 91.3 699.442 90.28C699.802 90.28 700.582 90.04 700.942 90.04C701.242 90.4 702.142 90.4 702.922 90.4ZM734.391 71.14V71.86C734.391 71.86 734.031 71.14 734.031 71.86C734.451 72.16 735.531 72.16 735.471 72.88C735.591 73.18 734.871 73.24 734.511 73.24C734.871 73.6 735.231 73.54 735.591 73.54L734.871 73.96C735.471 74.62 735.411 74.62 735.291 75.04C735.051 75.4 735.771 75.7 735.711 76.06C735.051 75.76 734.751 76.48 734.031 76.96L734.391 77.2C734.451 77.56 734.811 77.56 735.171 77.92C734.391 78.1 734.751 79.36 733.551 80.14C734.271 80.5 734.931 79.72 735.351 80.08C735.351 80.44 734.631 80.44 734.991 80.8C734.331 81.22 734.751 81.88 734.751 82.24C734.391 82.24 734.091 82.36 734.031 82.72C734.091 83.44 734.451 83.32 734.871 83.68C734.511 84.04 734.151 84.16 733.791 84.52C733.791 84.52 734.931 84.76 734.631 85.12C734.211 85.6 734.211 85.6 733.971 86.32C733.611 86.32 733.971 86.68 734.031 87.04C735.111 88.06 733.131 89.68 734.211 90.4C734.211 90.64 733.911 91.12 733.551 91.54C733.851 91.48 734.031 91.78 734.331 91.78C733.971 91.9 733.551 92.26 733.251 92.56L734.091 93.28C733.371 93.34 732.951 93.7 732.711 94.06L733.431 94.42L732.351 94.48C732.411 95.2 733.071 94.36 733.491 95.14C733.191 95.8 732.051 95.2 731.691 95.62C731.331 95.62 731.751 95.98 731.751 95.98L732.111 95.92C731.331 97.12 730.551 97.24 730.071 96.7C729.711 96.34 730.011 95.98 729.591 95.26C729.951 94.9 730.311 94.84 730.251 94.48L729.891 94.18L730.191 93.76L729.831 93.82L729.771 92.74C730.131 92.74 730.431 92.38 730.491 92.02L729.651 91.3C730.311 90.52 729.951 90.22 729.891 89.5L729.831 89.14C729.831 89.14 730.191 89.08 730.251 88.72C729.111 88.84 730.131 88 730.131 87.64C730.071 87.28 730.071 87.16 729.711 87.22L729.831 86.68L730.071 86.44C729.651 86.14 729.951 85.72 729.651 85.42C729.951 85.36 730.011 85.36 730.251 85.36C729.951 85.3 729.951 85 729.951 85C730.671 85 729.891 84.28 729.471 83.98C730.191 83.92 729.471 83.26 729.771 82.84H730.131L729.771 82.48L729.651 81.04C730.371 79.96 729.471 78.58 730.551 77.8C730.191 77.8 729.771 77.44 729.771 77.08C730.371 76.36 730.311 74.56 730.251 73.48C731.271 73.06 729.051 72.1 730.431 71.26C730.731 70.48 733.491 68.92 734.391 71.14ZM735.411 102.7L733.731 103.78C734.331 104.2 735.471 104.74 734.931 105.46L734.391 105.88L734.811 106.18C734.631 106.12 734.211 106 733.791 106.24L734.931 106.96C734.391 106.96 733.371 107.38 733.371 107.74C732.831 107.38 731.811 106.6 730.671 106.6C728.931 105.88 730.671 103.42 728.931 103.06L729.531 102.7C728.931 102.7 729.531 102.28 728.931 101.92C728.931 101.56 730.851 100.18 729.111 99.82C728.571 99.46 729.111 99.82 729.711 99.46C731.391 100.6 734.871 101.2 735.411 102.7ZM734.811 106.18L734.931 106.24C734.931 106.24 734.871 106.24 734.811 106.18Z" fill="#54352F"/>
<path d="M185.024 141.495C181.456 138.554 183.209 136.059 185.657 132.908C188.02 129.866 191.001 127.222 195.214 125.511C197.095 124.747 200.429 123.601 202.244 125.071C204.352 126.779 205.047 129.758 205.883 131.873C207.218 135.25 208.166 138.942 210.461 142.062C213.574 146.295 222.051 142.491 226.014 141.014C231.773 138.867 237.277 136.309 242.142 133.163C246.727 130.198 250.247 126.261 255.166 123.598C258.434 121.829 258.473 124.359 258.959 126.361C260.014 130.71 260.607 135.409 263.173 139.455C264.237 141.133 265.899 142.793 268.612 142.884C274.026 143.066 280.463 140.941 285.468 139.738C302.38 135.675 318.566 130.153 335 125.171" stroke="#FD9368" stroke-width="6.57" stroke-linecap="round"/>
<path d="M340.499 4C340.259 7.58624 339.779 11.1545 339.579 14.7427C339.177 21.9457 339.469 29.1699 339.132 36.3773C338.774 44.0152 337.513 51.5 336.471 59.0564M326.4 46.747C327.487 45.6602 328.663 44.6867 329.832 43.6883C334.347 39.8314 338.709 35.8051 343.161 31.8763C349.009 26.7155 354.992 21.7703 361.314 17.2046M322.371 21.9048C326.083 23.5397 329.478 26.1279 332.641 28.619C338.409 33.1615 343.618 38.4556 348.842 43.6016C351.923 46.6361 354.68 49.9614 357.732 53.0139M317 36.4521C324.445 33.8245 332.775 36.1851 340.35 36.7505C349.323 37.4201 358.36 37.5711 367.356 37.5711" stroke="#FF9D48" stroke-width="6.56906" stroke-linecap="round"/>
<path d="M374 53.8701C374.708 54.2496 375.163 54.6965 375.588 55.3842C376.566 56.9663 377.3 58.6877 378.254 60.287C378.938 61.4343 379.664 62.5565 380.408 63.6666C380.708 64.1142 380.591 64.111 380.778 63.6576C381.419 62.0965 382.467 60.6349 383.375 59.2235C386.117 54.959 388.867 50.5767 392.274 46.7909C394.438 44.3867 396.958 42.4635 399.906 41.0995C400.901 40.6389 401.918 40.1885 403 40" stroke="#FF9D48" stroke-width="6.56906" stroke-linecap="round"/>
</svg>
