<svg width="151" height="40" viewBox="0 0 151 40" fill="none" xmlns="http://www.w3.org/2000/svg">
<rect width="151" height="40" rx="20" fill="#FF7D35"/>
<path d="M28.72 18.56C28.72 20.1 27.42 21.22 25.54 21.52V22.88C27.22 22.78 28.78 22.68 30.08 22.52L30.28 24.3C27.24 24.64 22.22 24.92 18.88 24.92L18.58 23.02C20.1 23.02 21.66 23 23.2 22.98V21.5C21.38 21.16 20.16 20.06 20.16 18.56C20.16 16.74 21.96 15.5 24.42 15.5C26.9 15.5 28.72 16.74 28.72 18.56ZM33.44 9.76V27.58H31.1V9.76H33.44ZM29.56 15.02H19.16V13.26H29.56V15.02ZM21.82 12.46V10.7H27V12.46H21.82ZM26.36 18.56C26.36 17.88 25.56 17.3 24.42 17.3C23.3 17.3 22.5 17.88 22.5 18.56C22.5 19.24 23.3 19.84 24.42 19.84C25.56 19.84 26.36 19.24 26.36 18.56ZM46.0447 13.64C46.0447 15.56 44.1847 16.92 41.5847 16.92C38.9847 16.92 37.0647 15.56 37.0647 13.6C37.0647 11.72 38.9847 10.32 41.5847 10.32C44.1847 10.32 46.0447 11.72 46.0447 13.64ZM45.2047 21.74V20.06H48.6047V9.76H50.9447V23.54H48.6047V21.74H45.2047ZM51.2247 27.1H38.1447V21.84H40.4847V25.24H51.2247V27.1ZM43.4047 22.68H41.0847V19.5C39.2247 19.56 37.4847 19.58 36.1447 19.58C36.0447 18.98 35.9447 18.34 35.8247 17.74C40.2047 17.74 44.6847 17.52 47.1847 17.2L47.3247 18.92C46.1047 19.12 44.7847 19.24 43.4047 19.34V22.68ZM43.7247 13.64C43.7247 12.86 42.9047 12.06 41.5847 12.06C40.2247 12.06 39.4247 12.86 39.4247 13.64C39.4247 14.42 40.2247 15.16 41.5847 15.16C42.9047 15.16 43.7247 14.42 43.7247 13.64ZM69.7094 18.54H67.1294V27.58H64.8094V9.76H67.1294V16.6H69.7094V18.54ZM62.4494 11.58C62.2894 16.96 59.9294 21.4 54.4694 24.36L53.0494 22.6C56.9294 20.82 59.5894 17.08 59.9094 13.52H54.1294V11.58H62.4494ZM85.2541 27.36H73.4741V20.2H75.8141V21.98H82.9141V20.18H85.2541V27.36ZM82.9141 25.5V23.78H75.8141V25.5H82.9141ZM85.2341 19.26H82.9141V9.76H85.2341V19.26ZM71.0941 14.78C71.0941 12.34 73.1141 10.52 75.8141 10.52C78.5341 10.52 80.5341 12.3 80.5341 14.78C80.5341 17.3 78.5341 18.86 75.8141 18.86C73.1141 18.86 71.0941 17.3 71.0941 14.78ZM73.4541 14.76C73.4541 16.14 74.4941 16.94 75.8141 16.94C77.1141 16.94 78.1941 16.14 78.1941 14.76C78.1941 13.28 77.1541 12.46 75.8141 12.46C74.4741 12.46 73.4541 13.34 73.4541 14.76ZM107.813 27.58H105.473V9.76H107.813V27.58ZM104.133 21.78L102.773 23.54C101.313 22.64 99.4527 20.48 98.8527 18.62C98.2727 20.66 96.4327 22.92 94.5927 23.92L93.1727 22.2C96.0527 20.34 97.5927 17.52 97.5927 13.98V11.26H100.013V13.86C100.013 17.38 101.433 20.04 104.133 21.78ZM110.597 12.8V10.9H119.977V12.8H116.577C116.777 15.34 118.577 17.04 120.557 17.68L119.277 19.54C117.897 19 116.177 17.66 115.397 16.02C114.877 17.74 112.997 19.44 111.277 20.02L109.897 18.2C112.377 17.3 114.057 15.38 114.177 12.8H110.597ZM112.617 21.04H124.337V27.6H121.977V22.9H112.617V21.04ZM126.857 15.9H124.317V20.14H121.957V9.76H124.317V13.98H126.857V15.9ZM128.882 21.2L128.562 10.94H131.162L130.882 21.2H128.882ZM128.682 25.46V23.12H131.082V25.46H128.682Z" fill="white"/>
</svg>
