<svg width="202" height="49" viewBox="0 0 202 49" fill="none" xmlns="http://www.w3.org/2000/svg">
<path fill-rule="evenodd" clip-rule="evenodd" d="M8.5836 12.6282C8.55783 13.5458 8.58174 14.4854 8.6501 15.4362C8.91175 19.0761 10.073 22.415 11.0463 25.189C11.4691 26.394 12.7849 27.0267 13.9852 26.6023C15.1855 26.1779 15.8159 24.857 15.3931 23.652C14.4009 20.8243 13.4577 18.0389 13.2467 15.1033C13.0866 12.8765 13.227 10.9274 13.6303 9.3595C16.075 8.25757 18.5572 7.71945 21.3255 7.1193C22.1 6.95139 22.897 6.77862 23.7217 6.58728C24.3869 6.43297 24.9177 6.00392 25.2226 5.44713C28.4673 6.37224 31.6983 8.02976 34.6704 10.4748C36.7866 12.2158 38.7943 14.3642 40.0825 17.4926C41.5438 21.0412 41.7821 25.5774 40.7959 29.7318C38.9492 37.5108 34.5924 41.9958 30.4202 43.5428C24.5224 45.7297 17.8413 43.4785 12.076 37.5957C10.0428 35.5211 7.47861 32.1695 5.9441 28.318C4.41678 24.4846 3.98458 20.3737 5.7986 16.4851C6.54815 14.8784 7.50614 13.6395 8.5836 12.6282ZM9.89928 6.0652C9.78639 6.12793 9.67359 6.19185 9.56089 6.257C6.77427 7.86772 3.6396 10.2048 1.62509 14.5231C-0.901972 19.9401 -0.160174 25.4547 1.66515 30.0361C3.4833 34.5995 6.45036 38.452 8.79077 40.8402C15.2922 47.4742 23.8034 50.9282 32.017 47.8826C37.924 45.6923 43.1527 39.7603 45.2788 30.8043C46.4554 25.8482 46.2261 20.3018 44.3415 15.7252C42.6652 11.6543 40.0595 8.9269 37.5915 6.89653C33.0103 3.12768 27.8233 0.909985 22.6758 0.189979C19.9639 -0.189346 16.7969 -0.123274 13.8252 1.54438C11.9902 2.57414 10.7227 4.19285 9.89928 6.0652Z" fill="#54352F"/>
<path d="M201.896 10.5198V10.7598C201.656 10.9998 201.656 10.7598 201.656 10.7598L201.416 10.9998L201.896 11.2398C201.896 11.7198 201.936 12.2398 201.936 12.7198C202.176 13.9198 201.216 14.6398 201.696 16.0798C201.456 16.3198 200.976 17.1998 201.216 17.6798L200.736 18.1598C200.976 18.1598 200.976 18.3998 200.976 18.6398C200.256 18.3998 200.976 18.8798 200.496 19.1198C200.256 19.5998 200.256 20.3198 199.776 20.5598V20.7998C199.536 20.7998 199.296 21.5198 198.816 21.5198C199.056 21.7598 199.056 21.7598 199.296 21.7598C198.536 22.3198 196.816 23.4798 196.696 22.7598C196.456 22.5198 196.696 22.5198 196.696 22.2798L196.936 21.7998C196.936 21.7998 196.696 21.7998 196.696 21.5598H196.936C196.216 21.0798 197.656 20.1198 196.696 19.8798C196.936 19.8798 197.176 19.6398 197.416 19.3998C197.416 19.1598 196.936 19.3998 196.936 19.1598C196.936 18.6798 197.416 17.3198 197.176 17.0798C197.656 16.1198 197.576 15.8798 197.816 14.9198C198.056 14.6798 197.336 14.1998 198.056 13.9598C197.576 13.7198 198.296 13.2398 197.816 12.9998C197.576 13.4798 196.856 13.4798 196.616 13.2398H196.376L196.616 13.4798C195.896 13.9598 195.816 13.8398 194.856 14.3198H195.136L195.176 14.3998C194.776 14.5598 194.376 14.9998 194.376 14.7998C194.616 14.5598 194.776 14.5598 194.776 14.3198C194.536 14.0798 194.136 14.3198 193.896 14.3198V14.7998C193.416 14.3198 193.056 15.0398 192.336 14.7998C192.096 15.2798 191.496 15.7598 191.016 15.5198L191.736 15.2798L191.496 15.0398V14.4398C191.496 14.1998 191.576 13.7998 191.336 13.7998C192.056 12.1198 193.696 13.1598 194.896 12.4398C194.896 12.6798 195.376 12.4398 195.376 12.4398C195.376 12.3598 195.376 12.1998 195.136 12.1998H194.416C194.496 12.0798 194.896 11.4798 195.616 11.4798L195.576 11.5998C196.536 11.8398 196.416 10.9998 197.296 10.9998L200.216 10.2798C200.456 9.31984 201.416 10.0398 201.896 10.5198ZM193.176 15.1198L193.296 15.2798C193.296 15.2798 193.296 15.2798 193.536 15.2798L192.336 15.7598C192.096 15.5198 192.336 15.5198 192.576 15.2798C192.816 15.2798 192.816 15.4398 193.056 15.2798L193.176 15.1198ZM194.376 15.0398C194.376 15.2798 194.376 15.2798 194.136 15.2798C194.136 15.0398 194.376 15.0398 194.376 15.0398ZM195.656 25.6398C195.656 25.8798 195.896 25.8398 195.896 26.0798C196.376 26.0798 196.856 25.8398 197.336 26.0798C197.576 26.7998 197.616 27.7998 198.096 28.7598C197.616 28.9998 198.336 29.8798 198.336 30.3598C198.336 30.3598 198.096 30.3598 198.096 30.5998C198.096 30.8398 198.576 30.5998 198.336 31.0798C197.896 31.2798 197.056 31.7998 196.216 31.3198H195.976L196.456 31.0798C195.976 30.8398 195.496 30.5998 195.016 30.5998C195.256 30.3598 195.016 29.7198 195.016 29.4798C194.776 29.4798 194.536 29.4798 194.536 29.2398C194.776 28.5198 194.016 28.3998 194.496 27.6798C194.016 26.9598 194.976 26.6398 194.256 25.9198C194.376 25.4398 195.296 25.5598 195.656 25.6398Z" fill="#54352F"/>
<path d="M176.819 13.3594C177.059 13.5994 177.299 13.5994 177.299 14.0794C177.059 13.8394 176.819 14.3594 176.819 14.3594C176.339 15.5994 176.179 15.0394 175.699 16.2794C175.939 16.5194 176.619 16.0794 177.099 16.0794C179.019 15.8394 179.539 15.5194 181.459 16.0394C181.939 15.5194 182.419 16.0394 182.659 16.0394C183.859 15.8794 184.739 16.7594 185.139 17.5194C184.899 17.5194 184.539 17.9594 184.059 18.2394C183.339 18.4794 182.859 17.9594 182.099 18.2394L181.859 17.9594C181.619 18.9594 180.899 17.4794 180.659 18.4794C178.259 18.7194 177.419 18.5194 175.259 19.2394C174.739 19.9994 173.819 19.4394 173.099 19.9594C173.099 20.1994 173.579 19.9594 173.819 20.1994C173.579 20.6794 172.859 20.4394 172.379 20.9594L172.859 21.1994L172.619 21.4394C172.619 21.6794 172.379 21.4394 172.139 21.6794L172.619 21.9194C172.379 21.9194 172.379 22.1994 172.139 22.1994L172.379 22.4394C171.419 22.6794 171.419 23.9194 170.459 23.4394C170.459 23.4394 169.099 24.0794 168.619 23.5994L168.379 23.3194C168.739 23.5194 169.379 23.2394 169.659 22.9994C169.179 22.7594 168.859 23.5994 168.379 23.0794C168.379 22.8394 168.859 23.3194 168.859 22.8394C168.619 22.8394 168.339 22.5994 168.139 22.5994C168.139 22.3594 168.859 22.5994 169.099 22.3594C169.099 22.3594 168.939 21.9994 168.859 22.0394C169.139 21.3594 169.819 21.5994 170.059 21.3594L169.099 21.1194C169.099 20.5994 170.339 20.5994 169.819 19.8794H170.059C169.819 19.6394 169.819 19.3594 169.819 19.3594C170.059 18.8794 171.059 18.8794 170.819 18.3994C170.819 17.8794 171.019 17.1194 171.499 16.8394C172.459 16.1194 172.499 14.9194 173.459 14.1594L173.699 13.9194C173.699 13.6794 173.699 13.9194 173.459 13.9194C173.459 13.4394 173.979 12.5194 174.419 12.4394C175.179 12.1594 176.099 13.2794 176.819 13.3594ZM170.939 23.9194C170.939 24.6394 170.179 23.6794 169.939 24.3994C169.699 24.6394 169.699 23.9194 169.219 24.3994L169.539 25.1194C169.299 25.3594 168.619 24.8394 168.379 24.8394L167.899 24.0794C168.139 24.0794 168.179 23.9994 168.179 23.7594C168.619 24.0394 170.459 23.9194 170.939 23.9194ZM170.899 22.4394C170.419 21.9194 170.419 22.6794 169.899 22.6794C170.419 23.1594 170.659 22.5594 170.899 22.4394ZM187.539 24.9594L188.139 26.6794C187.939 26.8394 187.499 26.9194 187.259 27.0794L187.379 27.3194C186.819 26.9994 185.819 27.0794 184.899 27.3594L185.099 27.3994C184.419 27.7194 183.979 27.3594 183.299 27.6794L183.139 27.8794C182.259 27.7194 182.459 27.6394 181.699 27.9594C180.619 28.0394 179.659 28.5194 178.779 28.3994L178.979 28.6394C178.219 27.8394 177.339 29.2394 176.299 28.8794C176.059 28.8394 175.819 28.9994 175.379 28.9194L175.339 29.3594C175.139 29.1194 174.939 28.8794 174.739 29.0794C173.379 29.2394 172.579 30.0394 171.219 30.0394C170.539 30.1594 169.659 30.1994 168.979 30.3594L169.179 30.5994C168.539 30.2794 168.339 30.2394 167.659 30.3594C167.739 29.9194 167.379 29.6794 167.219 29.4394L166.859 29.1994C167.059 28.5194 168.179 28.4794 168.939 28.1594C171.699 27.5194 174.419 26.7994 177.379 26.1994C179.419 25.8794 181.459 25.5594 183.539 25.1994C184.859 25.1994 186.179 24.9994 187.539 24.9594Z" fill="#54352F"/>
<path d="M162.978 13.2396C162.658 13.7596 163.498 14.5997 162.618 15.1597V15.4396C163.738 15.7596 161.738 17.0796 163.418 17.0796C162.018 17.3596 163.658 18.2396 163.058 18.7196C163.658 19.3196 162.538 19.8397 163.298 20.1597L163.258 21.3597C163.018 21.3597 163.258 22.6797 163.258 22.6797L162.978 23.4396C162.658 23.4396 162.658 23.7197 162.658 23.7197C162.658 23.9997 163.218 23.9997 163.498 24.2796C162.658 24.5596 162.658 25.1197 162.898 25.6797H163.458C163.738 26.5597 162.898 26.2397 162.338 26.5197C162.618 26.7997 163.458 26.5197 163.418 27.3197C163.698 27.5997 162.858 28.1596 163.698 28.4396C163.418 28.3997 162.818 28.6797 163.058 29.2397C163.058 29.2397 163.058 29.5197 163.378 29.5197V29.8397C162.818 29.5197 162.818 29.5197 162.818 29.8397C162.818 30.0797 163.058 30.1597 163.378 30.3997C162.818 30.3997 161.018 30.2396 160.498 29.5996C160.218 29.5996 160.778 28.5597 160.258 28.5597C160.778 27.9997 159.978 27.1997 160.298 26.6797H160.018V26.1597L159.738 25.9196C160.538 25.6396 159.458 25.3197 160.058 24.7997C159.538 24.2396 159.778 23.6397 159.818 23.1196C160.138 22.8396 160.138 22.5597 159.818 22.3197C160.138 21.7597 159.858 21.1997 160.178 20.6397L159.858 20.3597L160.178 20.0796C159.658 19.5196 160.218 18.9596 159.938 18.3996C159.978 16.4796 160.378 13.5996 159.578 11.6796C160.178 11.1196 160.778 10.8797 161.698 11.3197C162.498 11.9597 162.698 12.6796 162.978 13.2396ZM150.658 13.7197L150.338 13.8397C150.658 14.4397 150.858 14.0796 150.858 14.5996H150.578L150.858 14.9196C150.858 15.1996 150.578 15.1996 150.578 15.1996C151.098 15.4396 150.778 16.0396 151.098 16.5596C150.258 16.5596 151.578 17.6796 150.498 17.9196C150.218 18.4796 151.018 18.1997 151.338 18.4797C152.658 17.4396 153.818 16.5597 155.778 17.1997C155.778 17.3997 156.578 17.9596 156.778 18.2396C156.538 18.2396 155.738 19.4797 155.138 19.1597L154.898 19.4797H155.138C153.138 20.7997 152.178 21.5197 150.418 23.1196C150.098 23.9596 151.218 23.9996 150.378 24.5596C150.618 24.8396 150.338 25.3997 150.058 25.6797C150.058 25.9197 150.058 25.9196 150.338 25.9196L150.058 26.2396C150.298 26.5196 150.298 27.0397 150.018 27.3197C149.738 27.5597 150.258 28.3997 149.698 28.7197C149.418 28.9597 149.418 29.4797 149.698 29.7997C149.658 30.3597 148.818 31.0397 148.818 31.8797L149.058 32.1196C148.458 32.1196 148.178 32.9597 147.378 32.6797C147.378 32.9597 147.658 32.9597 147.378 33.2397C146.858 33.1997 146.018 33.7597 145.418 33.1597L145.738 33.7596C144.898 33.6796 144.698 32.5997 143.578 32.3197C143.298 31.9997 143.338 31.0396 143.058 30.4396C143.378 29.6396 141.738 29.0397 142.818 28.1997C142.938 25.4797 146.018 23.0797 148.018 21.4797C147.458 21.1997 148.298 20.3597 147.778 19.7997C148.618 19.5596 147.218 19.5196 148.098 18.9597C148.098 18.6797 148.098 18.4396 148.098 18.4396L147.818 17.8397C148.378 17.8397 147.858 17.3197 148.138 17.0397C148.138 17.0397 148.138 16.7997 148.138 16.4797C147.898 15.9597 148.458 14.6396 147.658 14.3997L147.978 14.0796C148.218 13.5596 147.658 13.6797 147.378 13.3596C148.018 12.5597 146.858 10.8396 147.978 10.6396C148.818 11.1996 150.698 12.6396 150.658 13.7197ZM141.058 12.3997C141.338 11.8397 142.738 10.3996 143.698 11.1996C143.378 11.5196 143.418 12.3196 142.938 12.9597H143.218C142.378 13.4797 143.538 14.3196 142.698 14.9196H142.978C142.978 15.1996 142.698 15.4396 142.698 15.7596C143.578 16.2396 142.218 16.5996 143.018 17.1196L142.498 17.4396L142.738 17.6797C142.778 18.2397 143.098 18.7597 143.098 19.3197C142.298 19.9197 143.698 20.1197 143.138 20.7596C143.178 21.2796 143.418 21.8396 143.418 22.1196C143.738 22.3196 143.418 22.6397 143.178 22.6397L143.778 22.8796C143.498 23.1996 142.938 23.1996 143.218 23.7596C142.978 23.9196 141.658 24.3197 141.378 24.3197C140.578 24.4397 140.938 23.5997 140.858 22.6797L141.058 22.1196C141.058 22.1196 141.058 22.1196 140.778 22.1196C140.778 21.5596 140.738 20.1997 140.738 19.6397C139.898 18.7997 141.258 18.2397 140.418 17.4797H140.658C140.658 17.1997 140.658 17.1997 140.418 17.1997C140.338 15.5197 140.818 14.3197 141.058 12.3997ZM147.538 25.6397H147.258C146.738 25.8397 146.418 26.6796 145.858 27.2396C145.858 27.7596 145.538 28.3197 145.258 28.5597C144.698 29.1197 145.818 29.4396 145.218 29.9597C145.498 30.2797 145.218 30.7597 145.778 31.1196C147.098 30.8396 146.378 29.4396 147.178 28.5996C147.178 28.5996 147.178 28.3197 146.938 28.3197C147.498 27.5197 147.018 26.4397 147.538 25.6397Z" fill="#54352F"/>
<path d="M134.221 13.1997C133.661 13.4397 134.781 13.9597 134.221 14.1997C134.781 14.6797 134.781 15.2797 134.501 15.7597C134.781 15.9997 134.781 15.9997 134.781 16.2397C134.501 16.2397 134.221 16.2397 134.221 16.5197C134.501 16.5197 134.501 16.7597 134.781 16.7597L134.221 16.9597C134.501 17.1997 134.501 17.1997 134.781 17.1997C134.221 18.1997 135.621 19.3197 134.501 20.0797L135.101 20.3197C134.221 20.3197 135.101 21.3197 134.221 21.5597L135.101 22.0797C134.781 22.2797 134.501 22.2797 134.501 22.5197C135.101 22.5197 135.101 22.9997 134.781 23.2397H134.501C134.221 23.7597 135.621 24.6397 134.501 24.8797C135.101 25.3997 134.781 25.3597 134.501 25.8397C135.101 26.3197 134.781 26.8397 135.101 27.2797C134.501 27.5197 135.101 28.0397 135.101 28.2797C134.781 28.2797 134.501 28.2797 134.501 28.5197C134.781 28.7597 135.341 28.9997 135.101 29.7197C135.101 29.7197 134.781 29.7197 134.781 29.9597C134.781 29.9597 135.101 29.9597 135.101 30.1997C135.341 30.4797 134.781 30.4797 134.781 30.7197L135.101 30.9597C135.101 30.9597 135.101 31.1997 135.101 31.4397H134.781C134.501 31.4397 134.781 31.7197 135.101 31.9597C134.781 31.9597 134.501 31.9597 134.221 32.1997C134.221 31.7197 132.461 32.1997 132.461 31.9597L132.741 31.4397C132.501 31.1997 132.461 30.7197 131.901 30.7197C132.141 30.1997 132.461 29.9597 132.141 29.4797L131.901 29.2397C131.901 28.9997 131.741 29.0397 131.741 28.7997L131.581 28.5197C131.581 28.0397 132.701 27.7997 131.901 27.2797H131.581C131.581 27.0797 131.581 26.8397 131.901 26.8397L131.581 26.5997C131.901 25.8397 131.581 25.0397 131.901 24.3197L131.581 24.0797C131.901 23.5597 131.341 23.0797 131.901 22.6397C131.581 22.1197 131.581 21.7597 132.141 21.2397C131.581 20.9997 131.381 20.7197 130.821 20.9597C130.821 21.1997 130.061 20.9997 130.061 21.3597C129.021 21.3597 128.981 21.8797 128.261 21.9597C127.141 22.0797 127.301 22.9997 126.181 22.7597L126.461 22.9997C125.901 23.4797 125.261 22.1997 124.421 22.6797L123.501 21.6797C124.301 20.4797 126.461 20.2797 127.541 19.5597C129.781 19.0797 129.941 18.9197 132.141 18.4397C131.581 18.1997 132.141 17.6797 131.581 17.1997C131.901 17.1997 132.141 17.1997 132.141 16.9597H131.901C131.581 16.7597 131.901 15.9997 131.901 15.5197C131.581 15.0397 131.901 14.4397 131.581 14.1997C131.581 13.6797 132.461 13.6797 131.581 13.1997C131.581 13.1997 131.581 12.9597 131.581 12.7197C132.141 11.9597 133.981 12.7197 134.221 13.1997ZM122.381 14.2397C122.101 14.7197 122.221 14.9997 121.981 15.4797L122.141 15.7597V15.9997C121.421 16.2397 122.421 16.7197 121.901 16.9997C121.661 17.9597 121.501 18.0397 120.981 18.7597C120.981 19.2797 120.261 19.2797 120.741 19.7597C119.741 19.7597 120.541 20.5197 120.061 20.5197V20.7597C120.061 20.9997 119.541 20.7597 119.541 21.2397C121.021 22.9997 121.901 24.9597 122.901 26.6797C122.901 26.6797 122.901 26.9597 123.141 26.9597V27.1997C122.901 27.1997 122.901 27.1997 122.901 27.1997C123.621 27.6797 123.381 28.6797 124.141 29.1597L123.101 30.2397C122.381 29.9597 121.581 29.9597 121.261 29.1197C121.021 28.5997 120.541 27.8797 120.261 27.1197C119.541 26.6397 119.821 25.3997 118.821 24.8797C118.821 24.3997 118.541 23.9197 118.301 23.6797C117.781 23.6797 117.741 24.1597 117.261 24.6397C117.741 25.1597 117.021 25.1597 117.261 25.6397C116.781 25.6397 117.021 26.3997 116.501 26.3997C116.501 27.1197 115.581 27.6397 115.581 28.3597H113.701C113.701 28.1197 114.141 27.8397 113.901 27.5997H113.661C113.661 27.0797 113.901 26.1197 114.661 25.3597C114.141 24.8797 114.901 24.3597 114.901 23.8797C115.381 23.6397 115.141 22.8797 115.381 22.6397C116.861 20.3997 117.861 18.1997 119.341 16.1997C119.621 15.4397 119.941 14.8797 119.941 14.1597C120.181 13.8797 121.781 12.9997 122.381 14.2397Z" fill="#54352F"/>
<path d="M91.0505 7.83969L92.0105 8.23969L92.1305 8.63969L92.1705 9.03969L91.9305 10.1197L91.3305 10.3997C91.9305 10.6797 90.7705 10.9997 90.4905 11.8397C89.8905 12.3997 90.4105 13.0397 89.2505 13.3197C89.2505 13.3197 89.2505 13.3197 89.2505 13.5997L95.1305 13.6397C96.0105 14.2397 96.4505 14.5597 97.0105 14.8397L96.8505 16.0397C96.0105 16.0397 96.2905 16.3197 95.4505 16.3197V16.0397C93.4105 16.9197 91.6505 15.8797 89.6505 16.4797C89.0905 16.2397 88.8905 16.2397 88.5305 16.1597L87.4905 16.9197C87.4905 16.9197 87.7705 16.9197 88.0505 16.9197C87.4905 17.7597 86.4905 17.5997 86.1705 18.4797C86.4905 18.7597 86.7705 17.8397 87.3305 18.1197C86.7705 18.4397 86.1705 18.7597 86.1705 19.3197H86.4905C86.4905 19.3197 86.1705 19.5997 86.1705 19.8797C85.8905 20.1997 85.8905 20.4797 85.6105 20.4797L85.8905 20.7597C85.6105 21.3197 83.8505 21.5997 83.2505 21.8797L83.2905 21.0797L83.2105 20.6797L82.9305 19.8797C82.9305 19.5997 84.0905 19.3197 83.2105 18.7597C83.8105 17.8797 84.3705 16.7197 84.6505 15.8397C84.9305 15.8397 84.9305 15.5597 85.2105 15.5597C85.2105 15.2797 85.2105 14.3997 85.8105 14.1197C87.2105 11.8397 88.6905 9.39969 90.4105 7.67969H90.9705L91.0505 7.83969ZM101.611 23.0797V23.4797C101.331 23.7597 100.131 23.8397 99.8105 24.3997C99.5305 24.3997 99.2505 24.3997 99.2505 24.6797L98.9705 24.3597C98.0505 24.8797 97.4905 25.1597 96.6105 25.1197C96.3305 25.6797 95.8905 25.3597 95.3305 25.5997C94.4505 25.5597 94.0905 26.7197 93.2505 26.6797C92.0905 26.6397 91.2505 26.5997 90.3705 27.1197C90.3705 27.3997 90.6505 27.1597 90.9305 27.1597C90.5305 27.5197 90.0505 27.9997 89.1705 27.6797C88.9305 27.3597 88.3305 27.6397 87.7705 27.5997L88.0505 28.1997C87.7705 27.8797 87.2105 26.9997 86.8905 27.8797L87.1705 28.1597C86.8505 28.4397 86.3305 28.1197 86.0105 28.3997C86.0505 27.8397 86.5705 28.3997 86.8905 28.1597C86.6105 27.5597 86.3305 28.1197 85.7705 27.7997C85.4105 28.3597 84.8505 28.3197 84.3305 28.0397L84.8905 27.7597C84.6105 27.4797 83.0105 27.3997 83.3305 26.5197C83.0505 26.2397 82.8105 26.5997 82.7705 25.7197C83.4105 24.6397 85.2505 25.4397 86.4105 24.9197C90.7305 24.2397 94.6905 22.6797 98.7705 21.4397C99.8905 21.1597 101.051 22.4797 101.611 23.0797ZM94.5305 28.7597C94.2105 29.3197 94.4905 29.5997 93.6505 29.8397C94.2105 29.8797 93.8905 30.4797 93.6105 30.7197L93.5705 30.9997L93.8505 31.2797L93.2105 32.1597L93.1305 32.3997C92.9305 32.8797 93.0905 32.5997 92.8105 32.8397L92.7705 33.4797L92.8505 33.9997C94.0105 34.0797 95.2105 33.2397 96.3305 33.2797C97.7705 33.0797 99.4905 33.1197 100.651 33.4797C100.571 34.3997 99.4905 33.8797 99.4505 34.7597C99.1705 34.7597 98.8505 35.3197 98.5305 35.0397C97.9705 35.5597 97.1305 35.2397 96.5305 35.4797C95.9305 36.6397 94.0905 36.3197 94.0505 36.8797C93.5305 36.9197 93.0105 36.7997 92.6105 36.8397L90.9305 36.6797L90.7305 36.4797C90.4505 36.1997 90.1705 35.5597 89.8905 35.1997C90.1705 34.9597 90.5305 34.3997 89.9305 34.0797C90.2105 34.1197 90.2105 33.8397 90.2105 33.8397C89.4105 33.4797 90.5705 32.9597 90.2905 32.3997C90.6105 32.3997 90.8905 32.3997 90.8905 32.1197H90.2905C90.9705 30.6797 91.3305 29.1597 91.9705 27.9997C92.4105 27.5997 93.2105 27.5197 93.7705 27.7997C94.1305 27.9997 94.3305 28.3997 94.5305 28.7597Z" fill="#54352F"/>
<path d="M76.6905 7.27977C76.4105 7.47977 75.8505 8.47977 75.8105 8.95977C75.8105 8.95977 75.5705 8.91977 75.7705 9.15977C75.6905 9.63977 75.1705 10.0798 75.1305 10.2798C74.8105 10.7598 74.6505 11.0398 74.3705 11.2398C73.7705 11.8798 74.1705 12.3598 73.3705 12.7598C73.7305 13.5198 72.5705 13.2798 72.6905 14.0398C72.6505 14.2398 72.4105 14.2398 72.6105 14.4798V14.7198C73.5305 14.8798 74.1705 14.1998 75.1705 14.1198C76.8905 14.1198 78.6105 12.9198 80.1705 13.8798L80.1305 14.1198L80.3305 14.3598L80.8505 15.7198C80.5705 15.9198 79.6905 15.8798 79.4105 16.0798C77.9705 15.8798 76.4105 16.8398 74.7305 16.5998C73.8505 17.6798 72.4505 17.2398 71.4505 17.5998C71.0905 18.2798 70.0905 17.8798 69.9305 17.9198L70.2105 17.6798C69.7705 17.3998 68.7705 16.9998 68.5705 16.7598C69.2105 15.6398 70.4905 14.2798 70.9305 12.8798L71.2105 12.6798C71.0105 12.4398 71.0505 12.1998 71.3305 11.9998C71.3705 11.5198 71.6505 11.5198 71.7305 11.0798L72.4905 10.1998C72.3305 9.71977 73.5305 9.63977 72.8905 9.03977C70.9705 9.03977 70.0905 8.99977 68.7305 9.99977C68.8905 10.7598 68.6505 10.7598 68.3305 11.4398L68.0505 13.3198C68.0105 13.5598 67.8905 14.2798 67.6505 14.4798C68.0105 15.2798 66.9705 16.1198 67.2905 17.1598L67.2505 17.3998C67.0105 17.3598 65.7705 17.9998 65.5705 17.7198C65.5705 17.4798 65.0505 16.7598 65.3305 16.5198C65.1305 16.2798 65.4505 15.3198 65.2905 14.7998C65.3305 14.5598 65.6505 14.1198 65.1705 14.0398L65.2105 13.7998C65.6905 13.8798 65.0105 13.3198 65.5305 13.1198C65.1305 12.5998 65.4905 11.6798 65.5705 11.1998C65.6105 10.9598 65.6505 10.7198 65.4505 10.4398L65.6905 10.4798C65.0105 10.1598 65.7705 9.75977 65.8105 9.51977L66.0905 9.31977C65.3705 9.23977 66.1705 8.51977 65.7305 8.23977C66.0105 8.03977 66.1305 6.55977 66.4105 6.31977C66.6505 6.11977 67.2105 5.91977 67.4505 5.83977C67.7705 5.71977 68.3705 6.87977 68.6505 6.83977C68.7705 7.71977 70.6505 6.67977 71.3705 6.75977C72.5705 6.91977 74.6105 6.51977 75.8505 6.43977C76.2905 6.75977 76.4905 7.03977 76.6905 7.27977ZM80.7305 19.9598C80.6905 20.1998 80.9305 20.1198 80.8905 20.3598L80.9705 21.5998C80.6105 22.2798 79.2105 21.8398 78.8905 22.5198C78.0905 22.9198 77.1705 22.4398 76.6105 23.0798C76.1305 23.0398 75.8105 23.1598 75.5705 23.3598C75.0505 23.5598 74.6105 23.2398 74.2905 23.6798C74.4905 23.9598 74.1305 24.3198 74.1305 24.8798C73.8905 25.0798 74.4105 25.1198 74.4105 25.3598C74.1705 25.5598 74.2105 26.1998 74.2105 26.6798C74.0505 26.7998 74.0905 26.9198 74.1705 26.9998C74.0905 26.9598 73.9705 26.8798 74.0105 27.0398C74.0105 27.2798 74.2505 27.5598 74.0105 27.7598C74.0105 27.9998 73.7705 27.9598 74.0105 28.2398L74.2505 28.5198C74.0505 28.4798 74.0505 28.4798 74.0505 28.7198C73.8105 28.6798 73.5705 28.8798 73.5705 28.8798C73.8105 29.1598 73.8105 29.3998 74.0505 29.6398C73.3705 29.7998 74.0905 29.9598 74.0905 30.1998C73.8505 30.1598 73.6105 30.3998 73.3705 30.5998C73.8505 30.6398 73.6105 31.0798 73.6505 31.3198L73.4105 31.5198L73.8905 31.8398L73.4105 31.7598C74.1305 32.3598 72.9705 32.6398 73.6905 33.2398C73.4505 33.1998 73.4505 33.4398 73.4505 33.4398C73.6905 33.9598 73.4905 34.8798 73.4905 35.5598C73.0105 35.2798 73.2905 35.7598 73.0505 35.9998C73.2905 35.9998 73.2905 35.9998 73.4905 36.0398C73.4505 36.0798 73.3305 36.2398 73.5305 36.2798C73.5705 36.7598 72.8505 36.8798 72.3705 37.3198C72.6105 37.5598 72.8505 37.3598 73.0905 37.3998C73.0905 37.8798 72.4105 37.5998 72.1705 37.7998C71.6905 37.5198 70.6105 36.7198 70.6105 36.4798C70.8105 35.7998 70.5705 35.0798 70.7705 34.3998C70.5305 34.3598 70.5305 33.8798 70.2905 34.0798C70.7305 33.1998 70.0105 32.1598 70.6905 31.5198C70.4505 30.3198 71.1305 29.6398 70.8505 28.6398C71.5705 28.5198 70.5705 27.6398 71.3305 27.5198C70.7705 27.1998 71.5305 26.9598 71.2505 26.4398C71.5305 26.2398 71.2105 25.5598 71.2105 25.3198C71.4905 25.1198 71.4105 24.6398 71.6905 24.4398L71.5705 23.9198C71.2905 24.1198 71.0905 23.8398 70.8105 24.0398C69.8905 23.9198 69.6505 24.5998 68.6905 24.6798C68.0105 24.3598 68.1305 24.7998 67.4105 24.6798C66.8905 24.8798 65.8105 25.1998 65.1705 24.6398C64.8505 25.0798 64.7305 24.3198 64.4105 24.7598L62.8105 24.0398C63.2105 23.1198 64.3305 22.1998 65.1305 21.7998C65.6105 21.8798 65.8505 22.7598 66.6505 22.3598C68.1305 22.0798 69.6505 21.5998 71.1305 21.3198C72.6505 21.0398 73.8905 20.7598 75.3705 20.4798C76.9305 19.9598 79.1305 18.9998 80.7305 19.9598ZM74.2505 27.0798L74.1705 26.9998L74.2505 27.0798Z" fill="#54352F"/>
<path d="M27.2995 15.6498L27.9995 15.1498L28.5495 15.5498C27.9495 15.4498 27.4495 16.5998 26.8995 16.1998C27.1495 16.8498 28.4495 16.1498 28.2495 17.2998C28.7495 18.2998 27.2995 17.7498 27.7495 18.7498L27.9995 19.0998C27.6995 19.0498 27.3495 19.2998 27.3495 19.2998C27.5495 19.9498 27.9495 19.3998 28.2495 19.4498L28.5495 19.4998L28.4995 19.7998C28.4995 19.7998 28.1995 19.7498 28.1495 20.0498L28.3995 20.6498C27.7995 20.8998 27.4995 20.8498 27.1495 21.0998C27.4495 21.1498 27.9995 21.4998 28.3495 21.2498C28.2995 21.5498 28.2495 21.8498 28.5495 21.8998C28.4495 22.4998 28.1495 22.4498 27.8495 22.3998C28.3995 22.7998 27.4495 22.9498 28.2995 23.3998C28.2495 23.6998 27.6995 23.2998 27.6495 23.8998L28.1995 24.2498H27.8995L28.3995 24.8998L28.3495 25.1998L27.8495 26.3498L28.1495 26.3998C28.3995 26.7498 28.0995 26.9998 28.6495 27.3498L27.6995 27.5498L28.6995 29.0998C28.3995 29.0498 28.3495 29.3498 28.0495 29.2998C27.9995 29.8998 28.5495 29.9998 28.7995 30.6498C28.9495 31.5498 28.7995 32.4498 29.2495 33.4498L28.9495 33.6998C29.6995 34.6998 28.8995 36.0998 29.3995 37.0998C28.3995 37.5498 27.1995 36.1998 26.5995 36.0998C26.0495 35.6998 24.1995 35.2498 24.3495 34.3998C24.0995 34.0498 24.1495 33.7498 24.1495 33.4498L24.4995 33.1998C22.4495 32.8998 24.7995 31.3998 23.3495 30.8998L23.6995 30.6498C22.9495 29.5998 23.9495 28.6498 23.1995 27.6498C23.6495 26.4998 22.5995 25.4498 23.4495 23.7498C22.9495 23.0498 23.2995 22.7998 23.3995 22.1998C23.1495 21.8498 24.1495 21.0998 23.2995 20.9998C23.8995 20.7498 23.0495 20.0498 23.4495 19.4998C23.4995 19.1998 23.6495 18.2998 23.3995 17.9498L23.6995 17.6998C23.1995 17.0498 23.6495 16.1998 23.3995 15.8498C23.3995 15.8498 23.6995 15.8998 23.7495 15.5998C23.4995 15.2498 23.4995 15.2498 23.1995 15.1998C23.2995 14.2998 25.2995 14.0998 25.9495 14.5498C26.1495 15.1998 26.6995 15.5498 27.2995 15.6498ZM27.4995 14.4498L26.2495 14.5998L26.2995 14.2998L27.4995 14.4498Z" fill="#54352F"/>
</svg>
