<svg width="218" height="49" viewBox="0 0 218 49" fill="none" xmlns="http://www.w3.org/2000/svg">
<path d="M217.482 10.5198V10.7598C217.242 10.9998 217.242 10.7598 217.242 10.7598L217.002 10.9998L217.482 11.2398C217.482 11.7198 217.522 12.2398 217.522 12.7198C217.762 13.9198 216.802 14.6398 217.282 16.0798C217.042 16.3198 216.562 17.1998 216.802 17.6798L216.322 18.1598C216.562 18.1598 216.562 18.3998 216.562 18.6398C215.842 18.3998 216.562 18.8798 216.082 19.1198C215.842 19.5998 215.842 20.3198 215.362 20.5598V20.7998C215.122 20.7998 214.882 21.5198 214.402 21.5198C214.642 21.7598 214.642 21.7598 214.882 21.7598C214.122 22.3198 212.402 23.4798 212.282 22.7598C212.042 22.5198 212.282 22.5198 212.282 22.2798L212.522 21.7998C212.522 21.7998 212.282 21.7998 212.282 21.5598H212.522C211.802 21.0798 213.242 20.1198 212.282 19.8798C212.522 19.8798 212.762 19.6398 213.002 19.3998C213.002 19.1598 212.522 19.3998 212.522 19.1598C212.522 18.6798 213.002 17.3198 212.762 17.0798C213.242 16.1198 213.162 15.8798 213.402 14.9198C213.642 14.6798 212.922 14.1998 213.642 13.9598C213.162 13.7198 213.882 13.2398 213.402 12.9998C213.162 13.4798 212.442 13.4798 212.202 13.2398H211.962L212.202 13.4798C211.482 13.9598 211.402 13.8398 210.442 14.3198H210.722L210.762 14.3998C210.362 14.5598 209.962 14.9998 209.962 14.7998C210.202 14.5598 210.362 14.5598 210.362 14.3198C210.122 14.0798 209.722 14.3198 209.482 14.3198V14.7998C209.002 14.3198 208.642 15.0398 207.922 14.7998C207.682 15.2798 207.082 15.7598 206.602 15.5198L207.322 15.2798L207.082 15.0398V14.4398C207.082 14.1998 207.162 13.7998 206.922 13.7998C207.642 12.1198 209.282 13.1598 210.482 12.4398C210.482 12.6798 210.962 12.4398 210.962 12.4398C210.962 12.3598 210.962 12.1998 210.722 12.1998H210.002C210.082 12.0798 210.482 11.4798 211.202 11.4798L211.162 11.5998C212.122 11.8398 212.002 10.9998 212.882 10.9998L215.802 10.2798C216.042 9.31984 217.002 10.0398 217.482 10.5198ZM208.762 15.1198L208.882 15.2798C208.882 15.2798 208.882 15.2798 209.122 15.2798L207.922 15.7598C207.682 15.5198 207.922 15.5198 208.162 15.2798C208.402 15.2798 208.402 15.4398 208.642 15.2798L208.762 15.1198ZM209.962 15.0398C209.962 15.2798 209.962 15.2798 209.722 15.2798C209.722 15.0398 209.962 15.0398 209.962 15.0398ZM211.242 25.6398C211.242 25.8798 211.482 25.8398 211.482 26.0798C211.962 26.0798 212.442 25.8398 212.922 26.0798C213.162 26.7998 213.202 27.7998 213.682 28.7598C213.202 28.9998 213.922 29.8798 213.922 30.3598C213.922 30.3598 213.682 30.3598 213.682 30.5998C213.682 30.8398 214.162 30.5998 213.922 31.0798C213.482 31.2798 212.642 31.7998 211.802 31.3198H211.562L212.042 31.0798C211.562 30.8398 211.082 30.5998 210.602 30.5998C210.842 30.3598 210.602 29.7198 210.602 29.4798C210.362 29.4798 210.122 29.4798 210.122 29.2398C210.362 28.5198 209.602 28.3998 210.082 27.6798C209.602 26.9598 210.562 26.6398 209.842 25.9198C209.962 25.4398 210.882 25.5598 211.242 25.6398Z" fill="#54352F"/>
<path d="M187.667 15.8798C187.667 16.1198 187.627 16.3598 187.867 16.6398L187.627 16.5998C187.827 16.8798 187.827 17.5198 187.787 17.7598C187.027 18.1598 188.227 18.5198 187.467 18.9198C187.947 18.9598 187.187 19.3598 187.627 19.8798L187.387 20.1198C187.867 20.1598 187.307 20.8398 187.307 21.0798C187.067 21.2798 187.747 21.5998 187.227 22.0398C186.987 21.9998 186.707 22.4798 186.467 22.4398C186.467 22.6798 186.707 22.4798 186.947 22.4798C187.227 22.0398 187.187 22.7598 187.427 22.7598C187.387 22.9998 186.907 22.9598 187.147 23.2398L186.907 23.1998C186.867 23.4398 187.107 23.4798 187.347 23.4798V23.7198C187.307 23.9598 187.067 23.9598 187.067 23.9598C187.067 24.1598 187.067 24.1598 187.347 24.1998L187.067 24.3998L187.507 24.9198C186.987 25.1198 186.787 24.8798 186.507 25.3198C186.707 25.5998 187.187 25.6398 186.907 26.0798V26.3198C187.147 26.3598 186.867 27.2798 186.787 27.7598C187.027 28.0398 187.227 28.2798 187.227 28.5198L187.187 28.7598L186.547 29.0798C186.467 28.8398 186.307 28.7998 186.347 28.5598C185.587 28.9998 184.947 28.1598 184.467 27.8798H184.707C184.507 27.6398 184.507 27.3998 184.507 27.1598L184.267 27.3598L184.107 27.1598L184.507 26.9198L184.067 26.6398H184.307L184.067 26.3998C184.067 26.3998 184.307 26.3998 184.347 26.1598C183.867 26.1198 184.427 25.2398 183.987 24.6798C184.227 24.7198 184.507 24.2798 184.267 23.9998L184.027 23.7598C184.267 23.7598 184.307 23.2798 184.347 22.7998C184.147 22.7998 184.107 23.0398 183.907 22.7598C183.907 22.5198 184.147 22.5598 184.187 22.3198C183.707 22.0398 184.707 22.0398 184.027 21.7198C184.267 21.2798 184.267 21.2798 184.027 21.2398C184.787 20.8398 183.867 20.2798 184.387 19.8398L184.187 19.5998C184.187 19.5998 184.427 19.5998 184.427 19.3598L184.227 19.1198V18.2398C184.027 17.9598 183.147 18.1198 182.667 18.1198C182.147 18.5598 181.987 18.4398 181.467 19.1198C181.467 19.1198 181.227 19.3198 181.187 19.5598C180.987 19.2798 180.707 19.5198 180.507 19.4798C180.427 19.6398 180.227 19.7598 180.427 19.9598L180.907 20.2398C180.427 20.1998 180.627 20.4798 180.387 20.6798C180.507 20.9198 180.187 20.9998 180.107 21.1998C180.347 21.6398 180.307 21.7198 180.227 22.2398C180.227 22.2398 180.467 22.2398 180.467 22.4798C180.227 22.4798 180.227 22.4798 179.947 22.6798L180.187 22.9598L179.907 23.1598C180.147 23.4398 180.347 23.6398 179.867 23.8798L180.067 24.1598C180.067 24.6398 179.627 24.3598 179.587 24.5998L180.067 24.6398L179.787 25.0798C179.787 25.0798 179.547 25.3198 179.507 25.5598C179.747 25.5598 179.467 25.7998 179.707 25.7998C179.707 25.7998 179.667 26.2798 179.227 25.9998C179.187 26.2398 179.587 26.9998 179.107 27.1998C178.627 27.1598 177.667 26.8398 177.467 26.3598C177.987 25.9198 177.067 25.5998 177.107 24.8798L176.907 24.6398C177.147 24.6398 177.147 24.6398 177.147 24.3998V24.1998C177.147 24.3598 177.387 24.1598 177.387 24.1598L177.187 23.6798C177.267 22.7198 177.387 21.5198 177.187 20.5598C177.227 20.0798 177.587 19.3998 177.627 18.6798L177.667 18.4398C177.907 17.9998 176.947 18.1998 176.987 17.9598C176.507 17.9198 175.987 18.6798 175.547 18.3198L175.307 18.5598C175.267 18.7998 175.507 18.7998 175.507 18.7998L174.547 18.9598L174.307 18.9198C174.067 18.6798 173.507 19.0798 173.267 19.0398C172.787 18.7598 171.907 18.6398 171.427 18.3598C171.827 17.0398 173.587 17.1598 174.387 16.2398C175.627 15.8398 177.067 15.4398 178.067 14.7998C179.267 14.6798 180.067 15.5598 180.467 16.3198C181.187 16.3598 181.627 15.7198 182.347 15.7598C183.147 15.0798 184.107 15.2398 184.827 14.8398C185.827 14.8798 187.307 14.8798 187.667 15.8798ZM194.627 10.5598L194.827 10.8398L195.267 11.8398C194.787 12.0398 194.587 11.5198 194.307 11.7598C194.467 12.1998 194.707 12.2798 195.107 12.3198C194.987 12.3998 194.907 12.5998 194.707 12.7598C194.707 12.7598 194.907 13.3998 195.147 13.2398C195.187 13.3998 195.707 13.9598 195.107 14.1598C195.587 14.3998 195.107 14.6398 195.307 15.1198C195.267 15.3598 194.587 15.0398 195.027 15.3598H195.267C194.987 15.7998 195.507 15.5998 195.467 16.0798C195.227 16.0798 194.787 15.5598 194.507 15.9998C194.707 16.2798 195.227 16.0798 195.187 16.5598L195.387 16.7598L195.147 16.7998L195.347 17.0398C194.867 17.2398 194.867 17.4798 194.627 17.7198C194.867 17.7198 195.067 18.2398 195.267 18.4798V18.7198C195.267 18.7198 195.227 18.9598 194.987 18.9598C194.987 19.1998 195.147 19.5198 195.387 20.0398L195.347 20.2798C195.347 20.5198 195.067 20.3598 194.827 20.5598L194.787 21.0398C194.747 21.2798 195.507 21.0798 195.227 21.5598H194.987C194.907 22.0398 195.307 22.7998 195.547 22.7598C195.987 23.0398 196.267 22.3598 196.747 22.6398C197.747 21.9998 198.907 21.5198 200.347 21.6398C201.107 21.4398 202.107 21.0398 202.507 21.7998C203.707 21.8798 203.467 22.5998 203.667 23.0798C202.987 22.5598 203.147 24.2798 202.427 23.5198C202.227 23.7198 202.467 23.7598 202.467 23.7598C202.787 24.1998 202.427 23.9198 201.987 23.7198C201.707 23.4398 201.467 23.9198 201.227 23.9198C200.987 24.5598 200.387 24.2798 198.627 24.6398C198.587 24.8798 198.947 24.7998 199.187 24.7998C199.467 24.5998 199.667 24.7198 199.907 24.7598C199.187 25.1598 197.987 24.8798 197.587 25.3198L196.707 25.9598L196.067 26.2398C195.787 26.4398 195.987 26.1598 195.947 26.6398C195.707 26.6398 195.467 26.5998 195.187 26.8398L195.427 27.0798C194.947 27.0798 195.267 27.5598 195.027 27.7598C195.267 27.7998 194.947 28.5598 195.427 28.8398C194.947 28.7998 195.147 29.3198 194.907 29.2798C195.147 29.5598 195.147 29.5598 195.387 29.5598C195.147 29.7998 194.867 29.9998 195.107 30.2798C195.347 30.2798 195.307 30.5198 195.307 30.5198C195.067 30.7598 194.827 30.4798 194.827 30.7198C195.027 30.9998 195.267 31.6398 195.227 31.8798L194.947 32.3598C194.707 32.3198 194.907 32.5998 194.907 32.5998H195.147C195.187 32.8398 194.907 33.0398 194.667 33.2798L195.107 33.5598L194.587 33.9998L194.827 34.2398C194.827 34.2398 194.347 34.1998 194.067 34.4398C194.307 34.6798 194.787 34.4798 194.987 34.7598C194.267 34.9198 192.667 34.3598 191.947 34.5198C192.187 34.3198 192.427 34.3598 192.467 34.1198L192.027 33.5998C192.267 33.3598 192.267 33.3598 192.067 33.1198L191.827 33.0798C191.587 32.6398 192.307 32.6398 192.107 32.1598C191.187 31.8798 192.547 29.5998 191.867 28.8398C191.627 28.5998 192.387 28.1598 191.707 27.6798C192.067 26.6798 191.627 25.4798 191.707 24.5198L191.747 24.2798C191.987 24.0398 192.027 23.7998 192.067 23.5598C191.827 23.0398 191.307 23.2798 191.827 22.7998C191.827 22.7998 192.067 22.8398 192.107 22.5998C192.147 22.1198 191.667 22.1198 191.667 21.8798L191.707 21.3998C191.267 21.1198 191.787 20.8798 191.787 20.6398L192.067 20.4398C191.547 20.1998 191.827 19.9198 191.867 19.4398L192.107 19.2398C191.427 18.9598 191.707 18.5198 191.707 18.2798L191.987 17.9998C191.747 17.9998 191.787 17.7598 191.787 17.5198H192.027L191.547 17.0398C191.827 16.7998 191.827 16.7998 192.067 16.8398C191.827 16.5598 192.107 16.1198 191.427 15.8398C191.907 15.5998 191.467 15.3598 191.947 15.1198L191.547 14.6398C191.547 14.6398 191.787 14.6398 191.787 14.3998C191.307 14.1598 191.547 13.9198 191.587 13.4398C191.827 13.4398 191.627 12.7998 191.627 12.5598C191.187 12.2798 191.987 11.5998 191.267 11.5598C191.267 11.3198 191.467 10.9198 191.707 10.8398C191.507 10.9198 191.747 11.3198 191.987 11.3598C192.027 11.1198 192.467 10.9198 191.987 10.8798L192.027 10.6398C192.267 10.6798 192.267 10.6798 192.467 10.9198L192.747 10.7198C192.547 10.1998 191.787 10.3998 191.827 9.9198C192.587 9.7198 194.227 9.7998 194.627 10.5598ZM195.187 13.1998L195.147 13.2398C195.147 13.2398 195.147 13.1998 195.187 13.1998Z" fill="#54352F"/>
<path d="M157.829 2.63984C158.589 3.15984 158.309 3.27984 158.069 3.75984C158.469 3.51984 158.509 3.91984 158.629 4.15984C158.309 4.07984 157.589 4.51984 157.829 4.51984C157.589 4.75984 158.109 4.99984 158.349 4.95984C158.109 5.47984 157.629 5.47984 157.389 5.75984L157.629 6.19984C157.389 6.19984 157.149 5.95984 156.909 6.43984C157.549 6.63984 156.509 6.75984 156.549 7.11984C155.789 7.83984 155.909 8.31984 156.269 8.39984C156.989 8.91984 157.829 8.63984 158.549 9.35984C159.069 9.51984 158.949 9.67984 159.309 9.67984C159.309 9.39984 159.549 8.99984 159.549 8.99984C159.829 8.39984 160.349 8.03984 160.309 7.31984C160.789 6.83984 160.589 6.75984 160.749 6.63984C161.189 5.95984 161.229 5.59984 161.709 5.07984L162.149 4.91984L161.909 4.87984C162.109 4.43984 162.389 3.63984 162.869 3.91984L162.629 3.67984C162.829 3.19984 163.589 2.67984 164.069 2.63984C165.069 2.43984 165.909 3.03984 166.429 3.75984C166.189 3.79984 166.189 3.55984 165.949 3.75984C165.909 4.23984 166.629 4.03984 166.389 4.47984C166.149 4.31984 165.709 4.23984 165.229 4.27984C165.589 4.35984 165.029 5.11984 165.709 4.87984L165.469 5.07984V5.31984L164.789 6.39984H164.429C164.429 6.39984 164.309 6.15984 164.069 6.15984V6.39984C164.309 6.39984 164.589 6.59984 164.589 7.07984C163.869 7.07984 163.469 7.47984 162.989 7.71984L163.669 7.83984C163.189 8.59984 163.469 8.23984 163.069 9.11984C162.589 9.11984 162.429 9.59984 162.349 9.91984C162.229 10.3598 162.229 10.3198 162.029 10.7198C164.269 11.7998 166.509 12.3198 168.589 13.6798C168.669 13.6798 168.589 14.3198 168.269 14.5598C168.069 14.7598 167.669 14.7598 167.069 14.5598C166.829 14.5598 166.909 14.4398 166.629 14.4798C166.629 14.2398 166.189 14.1998 165.949 14.1598C165.989 13.9598 165.709 14.3598 165.709 14.3998C165.669 14.1598 165.469 14.1598 165.469 14.1598L165.229 14.4398V14.1998C164.509 13.9198 164.709 14.3198 163.989 13.8398C163.749 13.8798 163.709 14.1198 163.469 14.0798L163.349 13.9198C163.469 14.0798 163.749 13.8798 163.749 13.6398C163.469 13.1198 163.069 13.9998 162.549 13.4798L161.629 13.3598C161.629 13.3598 161.829 13.3198 161.629 13.0798C161.229 12.9998 160.669 12.9198 160.469 13.0798L159.909 13.7198C159.669 13.9598 159.389 13.9598 159.629 14.1998H159.869C159.629 14.6798 159.189 13.9198 159.149 14.3998L159.389 14.6798C158.909 14.8798 158.989 14.6398 158.989 15.1198L159.189 15.3598C158.949 15.5998 158.509 15.3998 158.269 15.8398C158.509 16.1198 158.749 15.8398 158.789 16.0798C158.509 16.1198 158.309 16.3198 158.309 16.5598L157.869 16.6398L158.029 17.0798C157.389 17.8398 157.189 18.0798 156.469 18.5598C155.989 18.5598 155.389 17.1998 154.909 17.9598C154.909 17.7198 154.589 17.5198 154.829 17.2398L154.709 16.7198C155.189 16.4798 155.349 16.3598 155.269 16.0798L155.629 15.6798L156.029 15.1198L156.309 14.3598L156.709 13.3598C156.469 13.1198 156.629 12.9598 156.869 12.9598C157.109 12.4798 157.429 12.3598 157.629 12.0798C157.109 11.5998 156.469 11.6398 155.709 11.4398L154.109 10.7198C153.389 10.7198 153.989 11.2798 153.269 11.5198C153.509 11.9998 152.989 11.6798 152.789 12.1998C152.549 12.1998 152.589 12.4398 152.309 12.7198L152.789 12.9198L151.869 13.3998H152.109C151.829 13.8798 151.349 14.1198 150.869 14.3598C150.909 14.5998 151.109 14.3598 151.349 14.3598L150.469 15.5998L150.949 15.7998L150.349 16.4798L149.149 16.5598L148.789 15.9198L148.989 15.4798C148.989 15.2398 148.749 15.1998 148.509 15.2398L148.429 14.2398L148.949 13.3198C148.709 12.7998 149.429 12.3198 149.669 11.5598L150.069 10.9998L150.629 10.3598L151.309 8.91984L152.349 7.55984C152.829 7.07984 153.069 6.59984 153.469 5.83984L153.989 5.75984L154.029 5.35984C153.989 4.87984 154.949 4.87984 154.709 4.39984C155.629 3.63984 156.829 1.79984 157.829 2.63984ZM170.469 18.4398C170.669 18.6798 170.629 19.8798 170.349 20.0398C169.709 19.5198 168.629 20.2398 168.189 19.9198C166.749 19.7598 166.389 20.6798 164.949 20.5198L165.189 20.7598C163.909 20.8798 162.469 20.8798 161.469 21.2398C161.269 20.9998 160.989 21.3998 160.749 21.3998C159.749 21.5198 158.509 21.5598 157.749 21.9998C157.029 21.8798 156.429 22.5198 155.509 22.3998C155.149 23.3198 154.109 22.1998 153.509 23.1198C152.549 22.9998 151.989 23.3998 151.229 23.7598C150.749 23.7198 149.949 23.9998 149.469 23.9198C150.229 23.5198 148.869 22.4798 149.389 22.0798L154.989 19.9198C157.109 19.1198 159.749 18.8798 162.229 18.2798C163.189 18.1598 164.149 18.2798 165.189 17.9198C166.869 17.8798 169.149 17.5198 170.469 18.4398ZM165.949 24.9198L165.469 25.5198L164.269 26.2798C164.789 27.1198 163.469 27.3998 163.469 27.6798L163.189 27.9598L163.469 28.2398L162.669 28.7198V28.9998L161.149 30.4398C161.149 30.7198 161.149 30.7198 161.429 30.7198C161.149 31.2398 160.509 31.3198 160.269 31.8798C161.069 32.4398 162.109 31.3598 162.949 31.6398C164.589 31.6398 165.389 31.9998 166.469 32.7998C166.189 33.0798 165.989 33.3198 165.709 33.3198C165.709 33.5998 165.989 33.8798 165.989 33.8798C164.869 34.1198 165.149 34.8398 164.629 35.6398C164.349 35.9198 164.069 36.1998 163.789 36.6798C163.269 36.4398 162.909 37.4798 162.629 37.7598C162.629 38.2798 163.389 38.1198 163.669 38.1198V38.3598L163.949 38.1198C164.229 37.5598 165.189 37.1598 165.749 37.1598C167.109 36.6798 168.469 36.1998 169.789 35.3598C170.069 35.3598 170.429 35.5998 170.709 35.5998L169.509 36.7598L170.029 37.3198C169.509 37.0398 169.229 37.3198 168.949 37.5598H169.229C168.949 38.0798 168.949 38.3598 168.189 38.6398C168.189 38.6398 168.469 38.6398 168.469 38.8798C168.189 39.1598 167.349 39.1598 167.109 39.4398C166.549 39.4398 166.549 40.7998 165.989 39.9998C165.189 41.3598 163.269 41.3598 162.189 41.8798C161.389 41.5998 159.309 42.1598 158.469 41.8798C159.029 41.3598 158.469 40.0798 158.469 39.7998C158.469 39.5598 158.469 38.7198 159.309 38.4398H159.029C160.069 37.1198 160.349 36.5998 161.429 35.5198C161.149 34.9598 162.509 34.7198 161.949 34.1598C160.869 34.7198 160.269 34.5598 159.229 34.5598C158.149 34.2798 157.589 34.5598 156.509 34.5598C156.789 33.7198 156.869 32.7998 156.869 32.2398C157.389 31.9598 157.109 31.3998 157.389 31.3998C157.669 30.3198 159.029 30.0398 159.029 28.9598C159.549 28.6798 160.069 28.1998 160.629 27.6398H160.349C160.909 26.8398 161.389 27.2398 161.669 26.3998C160.829 26.1598 160.229 26.3998 159.469 26.3998L159.309 26.7598L159.189 26.9598C158.629 27.2398 156.909 26.1598 156.349 26.6798C156.629 26.9598 156.909 26.9598 156.909 27.2398C156.349 27.2398 155.469 27.9598 154.909 27.1598C154.909 26.5998 155.309 25.4798 155.309 24.9598C156.949 24.1198 159.509 24.3998 161.109 23.5998C162.749 23.3198 164.589 24.1198 165.949 24.9198Z" fill="#54352F"/>
<path d="M132.581 13.1997C132.021 13.4397 133.141 13.9597 132.581 14.1997C133.141 14.6797 133.141 15.2797 132.861 15.7597C133.141 15.9997 133.141 15.9997 133.141 16.2397C132.861 16.2397 132.581 16.2397 132.581 16.5197C132.861 16.5197 132.861 16.7597 133.141 16.7597L132.581 16.9597C132.861 17.1997 132.861 17.1997 133.141 17.1997C132.581 18.1997 133.981 19.3197 132.861 20.0797L133.461 20.3197C132.581 20.3197 133.461 21.3197 132.581 21.5597L133.461 22.0797C133.141 22.2797 132.861 22.2797 132.861 22.5197C133.461 22.5197 133.461 22.9997 133.141 23.2397H132.861C132.581 23.7597 133.981 24.6397 132.861 24.8797C133.461 25.3997 133.141 25.3597 132.861 25.8397C133.461 26.3197 133.141 26.8397 133.461 27.2797C132.861 27.5197 133.461 28.0397 133.461 28.2797C133.141 28.2797 132.861 28.2797 132.861 28.5197C133.141 28.7597 133.701 28.9997 133.461 29.7197C133.461 29.7197 133.141 29.7197 133.141 29.9597C133.141 29.9597 133.461 29.9597 133.461 30.1997C133.701 30.4797 133.141 30.4797 133.141 30.7197L133.461 30.9597C133.461 30.9597 133.461 31.1997 133.461 31.4397H133.141C132.861 31.4397 133.141 31.7197 133.461 31.9597C133.141 31.9597 132.861 31.9597 132.581 32.1997C132.581 31.7197 130.821 32.1997 130.821 31.9597L131.101 31.4397C130.861 31.1997 130.821 30.7197 130.261 30.7197C130.501 30.1997 130.821 29.9597 130.501 29.4797L130.261 29.2397C130.261 28.9997 130.101 29.0397 130.101 28.7997L129.941 28.5197C129.941 28.0397 131.061 27.7997 130.261 27.2797H129.941C129.941 27.0797 129.941 26.8397 130.261 26.8397L129.941 26.5997C130.261 25.8397 129.941 25.0397 130.261 24.3197L129.941 24.0797C130.261 23.5597 129.701 23.0797 130.261 22.6397C129.941 22.1197 129.941 21.7597 130.501 21.2397C129.941 20.9997 129.741 20.7197 129.181 20.9597C129.181 21.1997 128.421 20.9997 128.421 21.3597C127.381 21.3597 127.341 21.8797 126.621 21.9597C125.501 22.0797 125.661 22.9997 124.541 22.7597L124.821 22.9997C124.261 23.4797 123.621 22.1997 122.781 22.6797L121.861 21.6797C122.661 20.4797 124.821 20.2797 125.901 19.5597C128.141 19.0797 128.301 18.9197 130.501 18.4397C129.941 18.1997 130.501 17.6797 129.941 17.1997C130.261 17.1997 130.501 17.1997 130.501 16.9597H130.261C129.941 16.7597 130.261 15.9997 130.261 15.5197C129.941 15.0397 130.261 14.4397 129.941 14.1997C129.941 13.6797 130.821 13.6797 129.941 13.1997C129.941 13.1997 129.941 12.9597 129.941 12.7197C130.501 11.9597 132.341 12.7197 132.581 13.1997ZM120.741 14.2397C120.461 14.7197 120.581 14.9997 120.341 15.4797L120.501 15.7597V15.9997C119.781 16.2397 120.781 16.7197 120.261 16.9997C120.021 17.9597 119.861 18.0397 119.341 18.7597C119.341 19.2797 118.621 19.2797 119.101 19.7597C118.101 19.7597 118.901 20.5197 118.421 20.5197V20.7597C118.421 20.9997 117.901 20.7597 117.901 21.2397C119.381 22.9997 120.261 24.9597 121.261 26.6797C121.261 26.6797 121.261 26.9597 121.501 26.9597V27.1997C121.261 27.1997 121.261 27.1997 121.261 27.1997C121.981 27.6797 121.741 28.6797 122.501 29.1597L121.461 30.2397C120.741 29.9597 119.941 29.9597 119.621 29.1197C119.381 28.5997 118.901 27.8797 118.621 27.1197C117.901 26.6397 118.181 25.3997 117.181 24.8797C117.181 24.3997 116.901 23.9197 116.661 23.6797C116.141 23.6797 116.101 24.1597 115.621 24.6397C116.101 25.1597 115.381 25.1597 115.621 25.6397C115.141 25.6397 115.381 26.3997 114.861 26.3997C114.861 27.1197 113.941 27.6397 113.941 28.3597H112.061C112.061 28.1197 112.501 27.8397 112.261 27.5997H112.021C112.021 27.0797 112.261 26.1197 113.021 25.3597C112.501 24.8797 113.261 24.3597 113.261 23.8797C113.741 23.6397 113.501 22.8797 113.741 22.6397C115.221 20.3997 116.221 18.1997 117.701 16.1997C117.981 15.4397 118.301 14.8797 118.301 14.1597C118.541 13.8797 120.141 12.9997 120.741 14.2397Z" fill="#54352F"/>
<path d="M101.482 14.4398C99.7222 15.2798 96.8022 16.3598 95.0022 17.1998C94.1622 17.4398 94.1622 17.7598 93.5222 18.3198C94.1222 18.3598 94.0822 18.7198 94.0822 18.9998C94.0422 19.3198 94.0422 19.3198 94.0422 19.6398C93.7222 19.6398 93.4822 19.2798 93.4422 19.5998C93.4422 19.9198 93.6822 20.2398 94.0022 20.2398C94.0022 20.5998 93.4022 20.5598 93.3622 21.1598C93.9622 21.1998 93.9222 21.4798 93.9222 21.7998C93.5622 22.0798 93.5622 21.9998 93.8422 22.5998C93.5222 22.5998 93.5622 21.9998 93.2422 22.5598C93.2022 23.1998 94.1222 22.5998 93.8022 23.2398L92.8822 23.7998H93.1622C93.7622 24.1598 92.8422 24.4398 93.4022 24.7598C93.3622 25.0798 92.8022 24.6798 92.8022 24.9598C93.8422 26.5998 95.0422 25.0798 96.5222 24.8798C97.8022 24.4798 99.4822 23.8798 101.002 23.6398C101.442 23.5998 101.922 24.0398 101.922 24.6398C101.482 25.7198 100.522 25.7198 99.8822 26.5998C98.2422 26.4798 96.6822 27.5198 95.2422 27.7998C94.6822 27.7598 94.0822 28.1998 93.4422 28.2398C92.8022 29.1198 91.0022 28.1998 90.0822 28.7598C89.8022 28.7598 88.9622 28.4798 88.7222 27.9198L89.0422 27.3198C88.8022 26.9998 89.3622 26.2398 89.4022 25.5998C89.1622 24.9598 91.2422 24.1598 89.8022 23.4798H90.1222L89.8422 23.1198C89.8422 22.8398 90.6822 23.5198 90.7222 22.8798C90.4822 22.5598 90.2022 22.5198 89.8822 22.5198L90.2022 22.2398C90.2022 22.2398 90.2022 21.8798 89.8822 21.8798C90.2422 21.5998 91.4422 21.0398 90.6022 20.3998L90.7222 19.6798L90.8022 18.7598C89.4422 18.9198 89.2422 19.5998 88.0422 18.4398L87.2422 18.1198C89.7222 16.0398 91.6422 16.6398 94.2022 14.9598C95.4422 14.7998 97.2422 13.8398 98.4422 13.6398C99.3622 13.3198 100.962 13.2798 101.482 14.4398ZM107.802 13.6398C107.802 13.9198 108.082 14.1598 108.002 14.4398L107.762 14.6798C108.282 14.9598 108.002 15.4798 108.522 15.7198C108.282 15.7198 108.242 15.9998 107.962 15.9998C108.482 16.2398 108.482 16.5198 108.482 16.7598C108.482 17.0398 107.962 17.0398 107.922 17.2798C107.922 17.5598 108.202 17.5598 108.442 17.5598C108.442 18.0798 108.162 18.5998 108.682 18.8398C108.402 19.6398 108.362 20.0798 108.642 20.5998C108.362 20.5998 108.642 21.1198 108.362 21.3998C108.642 21.3998 108.602 21.6398 108.602 21.9198L108.322 22.1598C108.602 22.1598 108.322 22.6798 108.522 22.9598C108.002 22.9598 108.522 23.4798 108.522 23.7198L108.282 23.9998L108.762 24.5598C108.482 24.7598 108.242 24.7598 108.242 25.2798L108.722 25.8398C108.722 25.8398 108.482 25.5598 108.202 25.7998C108.442 26.0798 108.722 26.1198 108.442 26.3198L108.722 26.8798C108.722 26.8798 108.442 26.8398 108.162 27.1198C108.402 27.1198 108.402 27.3598 108.682 27.6398H108.402L108.682 27.8798L108.402 28.1598L108.642 28.3998L108.122 28.6798C108.362 28.9198 108.642 28.9198 108.642 28.9198L108.362 29.1998C108.882 29.5198 108.322 29.9598 108.602 30.4798V30.9198C108.842 31.2398 108.322 31.1598 108.002 31.4398C107.482 31.9598 106.522 30.9198 105.962 31.3998C105.962 31.3998 106.282 31.5198 106.482 31.6798C105.802 31.7998 105.962 31.6398 105.682 31.3998C105.682 31.3998 105.962 31.3998 106.002 31.1198L105.202 30.8798L105.482 30.4398C105.202 30.4398 105.202 30.2398 105.002 30.1598C105.202 30.1598 105.202 29.9198 105.282 29.6798L105.002 29.6398C105.282 29.6798 105.002 29.1198 105.282 29.1598C105.002 28.8398 105.002 28.3198 105.042 28.0798L105.322 27.8398L104.802 27.2798L105.322 27.0798L104.842 26.7598C105.602 26.5598 104.882 25.4798 105.402 25.2398C104.882 24.6798 105.122 24.1598 105.162 23.6398C105.682 22.9198 104.962 22.3598 105.202 21.8398C105.002 20.5198 105.562 18.7998 105.082 17.7198C105.362 17.5198 105.082 17.1998 105.402 16.9998C105.122 16.9598 105.122 16.4398 105.122 15.8798L105.162 15.6398L104.922 15.3598C105.682 15.1598 104.922 14.5998 105.162 14.3198C105.442 14.3998 105.482 14.1198 105.482 14.1198C104.682 13.7998 105.202 12.9998 105.282 12.4798C106.042 12.2798 107.602 12.8798 107.802 13.6398Z" fill="#54352F"/>
<path d="M71.6507 17.9599C70.6907 18.4799 69.7707 16.9199 68.8107 17.6399C68.5707 18.3599 67.6107 18.4799 67.8507 19.1999C67.1307 19.6799 66.8907 20.2799 66.6507 20.9999H67.1307C66.8907 21.4799 66.4107 21.7199 66.4107 22.1999V23.3999C66.1707 23.3999 66.3307 23.7999 66.3707 24.0799C66.4107 24.1199 66.7707 24.4399 66.8907 24.7199C67.1307 24.9599 67.3707 24.9599 67.6107 24.9599C68.5707 23.5199 68.8107 22.4399 69.0507 20.7599C69.5307 20.2799 68.5707 19.7999 69.0507 19.5599C68.8107 19.3199 68.6907 18.5199 69.1707 18.2799C69.1707 18.0399 70.2507 18.3599 70.4907 18.3599C70.7307 18.8399 71.4507 18.5999 71.4507 19.0799C71.4507 19.5599 72.4107 19.7999 71.9307 20.5199C71.9307 20.7599 72.1707 20.7599 72.1707 20.7599C72.1707 21.2399 71.6907 20.7599 71.4507 21.2399H72.1707C71.9307 21.4799 72.4107 21.7199 71.9307 21.7199C71.6907 21.7199 71.9307 21.9599 71.9307 22.1999C71.2107 22.6799 71.9307 23.9999 70.7307 24.4799L71.2107 24.9599C70.9707 24.9599 71.0907 25.0399 71.0907 25.2799L71.2107 25.4399C70.7307 25.6799 70.4907 25.6399 70.2507 26.1199L70.4907 26.3999C69.7707 26.3999 68.0507 26.8799 67.3307 26.8799C66.1307 26.8799 64.9707 25.6799 64.4907 24.7199C64.7307 24.4799 64.2507 23.6399 64.2507 23.3999H64.0107C64.2507 22.6799 64.0107 21.9599 64.7307 21.2399H64.4907C64.9707 20.2799 64.9707 19.1999 65.9307 18.7199C65.6907 17.9999 66.6507 17.3999 67.1307 16.9199C67.6107 16.4399 68.6907 15.7999 69.6507 15.7999C70.1307 16.0399 71.6107 16.9999 71.6507 17.9599ZM84.4107 14.6799C84.4507 15.1599 83.2907 15.7199 84.2507 15.6399C84.0107 15.8799 84.0507 16.5199 84.0507 16.7599L84.3307 16.9999L84.0907 17.2399C84.3307 17.2399 84.3307 17.4399 84.1307 17.7199C83.8907 17.7199 84.1307 17.9599 84.1707 18.1999C84.1707 18.4399 84.1707 18.4399 83.9307 18.4399L84.1707 18.6799C83.9307 18.6799 83.9707 18.9199 84.2107 19.1599C83.7707 19.6799 83.8107 20.4399 84.0907 20.8799C84.0907 20.8799 83.8507 20.9199 83.8507 21.1199C83.8507 21.1199 84.0107 21.3599 84.1307 21.5999C83.8907 21.4799 83.9707 21.9599 83.6907 21.8799C83.6907 22.1199 83.9307 21.8799 83.9307 22.1199L83.4907 22.2799C83.2507 22.3199 84.0107 22.9199 83.8107 23.4399V23.6799L84.0507 23.8799L83.8507 24.1599C84.3707 24.5999 83.4107 24.9199 84.2107 25.5599L83.7707 25.8399C84.4507 26.0399 83.3707 26.7599 84.2107 26.8799C83.8107 26.9599 83.8507 27.1999 83.8507 27.3999H84.0107C83.8507 27.4799 83.8907 27.9199 84.1307 28.1199H83.8907C83.6907 28.5999 84.2107 29.2799 83.7307 29.5599L83.4507 30.2399L83.9707 30.4399C83.4907 30.7199 82.1307 29.8799 81.6507 30.1599L80.6907 29.7599C81.1707 29.7199 80.6507 29.5199 80.6507 29.2799L80.8507 28.9999C80.6107 28.7999 80.5707 28.3199 80.0907 28.1199C80.2907 27.8399 80.8107 28.0399 80.5307 27.5999L80.2907 27.3599L80.5307 27.3999L80.7707 27.3199C80.2507 27.1199 80.6907 26.5999 80.2507 26.6399L80.2907 26.4399L80.2107 26.1599L80.4107 25.7999C80.1707 25.5599 80.1707 25.5599 80.3707 25.3199H80.6107C80.5707 25.0799 80.3307 25.0799 80.3307 25.0799C80.3307 24.8399 80.2907 24.5999 80.0507 24.5999C80.5307 24.3599 80.2907 24.1199 80.2507 23.6399C79.9707 23.3999 80.4907 23.6399 80.6907 23.3599L80.4507 23.3999C80.4107 22.6799 80.4107 22.5599 80.5707 21.7999C80.3307 21.8399 80.5707 21.3199 80.2907 21.1199C80.2507 20.6399 81.0107 20.8399 80.9307 20.3599C80.6507 19.8799 79.9707 20.1599 79.7307 20.1999C78.3707 20.7599 77.2507 20.8799 75.8507 21.7199C75.0907 21.2799 74.4507 22.7599 74.1707 21.5599C73.9307 21.5999 73.0907 21.5199 72.8507 21.5599C73.5307 21.2799 73.5707 19.4799 74.3307 19.6799C74.6907 18.6799 76.4107 19.2799 76.8507 18.3199C77.5707 18.2799 77.8507 18.4399 78.3307 18.1599C79.2907 18.3199 80.0907 17.7999 80.8107 17.5199C81.0107 17.2399 80.7707 16.8399 81.2107 16.7599C81.0107 16.7599 80.9707 16.7599 80.7707 16.7999C80.7307 16.3199 81.6507 16.1199 80.9307 15.6799H81.4107C81.3707 15.4399 80.8907 15.5999 80.8907 15.3599L81.5707 14.8399C81.0907 14.8799 81.3307 14.6399 81.0107 14.3999C81.0107 13.9199 81.6107 13.5999 82.0507 13.3599C82.5707 13.7999 83.8507 14.2399 84.4107 14.6799ZM84.0907 29.5199L84.3307 29.4799C84.3307 29.4799 84.3307 29.7199 84.0907 29.7599V29.5199Z" fill="#54352F"/>
<path fill-rule="evenodd" clip-rule="evenodd" d="M8.5836 12.6282C8.55783 13.5458 8.58174 14.4854 8.6501 15.4362C8.91175 19.0761 10.073 22.415 11.0463 25.189C11.4691 26.394 12.7849 27.0267 13.9852 26.6023C15.1855 26.1779 15.8159 24.857 15.3931 23.652C14.4009 20.8243 13.4577 18.0389 13.2467 15.1033C13.0866 12.8765 13.227 10.9274 13.6303 9.3595C16.075 8.25757 18.5572 7.71945 21.3255 7.1193C22.1 6.95139 22.897 6.77862 23.7217 6.58728C24.3869 6.43297 24.9177 6.00392 25.2226 5.44713C28.4673 6.37224 31.6983 8.02976 34.6704 10.4748C36.7866 12.2158 38.7943 14.3642 40.0825 17.4926C41.5438 21.0412 41.7821 25.5774 40.7959 29.7318C38.9492 37.5108 34.5924 41.9958 30.4202 43.5428C24.5224 45.7297 17.8413 43.4785 12.076 37.5957C10.0428 35.5211 7.47861 32.1695 5.9441 28.318C4.41678 24.4846 3.98458 20.3737 5.7986 16.4851C6.54815 14.8784 7.50614 13.6395 8.5836 12.6282ZM9.89928 6.0652C9.78639 6.12793 9.67359 6.19185 9.56089 6.257C6.77427 7.86772 3.6396 10.2048 1.62509 14.5231C-0.901971 19.9401 -0.160174 25.4547 1.66515 30.0361C3.4833 34.5995 6.45036 38.452 8.79077 40.8402C15.2922 47.4742 23.8034 50.9282 32.017 47.8826C37.924 45.6923 43.1527 39.7603 45.2788 30.8043C46.4554 25.8482 46.2261 20.3018 44.3415 15.7252C42.6652 11.6543 40.0595 8.9269 37.5915 6.89653C33.0103 3.12768 27.8233 0.909985 22.6758 0.189979C19.9639 -0.189346 16.7969 -0.123274 13.8252 1.54438C11.9902 2.57414 10.7227 4.19285 9.89928 6.0652Z" fill="#54352F"/>
<path d="M30.5 16.8999L30.2 17.1999C30.5 17.4999 30.8 18.4499 30.8 18.7499L30.5 19.0999C30.5 19.3999 30.8 19.3499 30.8 19.3499C30.8 19.6499 30.8 20.2999 30.2 20.5999C30.8 20.8999 30.5 21.4999 30.5 21.7999C30.2 22.0999 29.9 22.3999 29.3 22.6999L29.6 22.9999L29 23.5999C29.6 23.5999 28.7 23.8999 29.3 24.1999C28.4 25.0999 28.1 25.3999 27.5 25.6999C27.5 25.9999 27.8 25.9999 28.1 25.9999C27.8 26.5999 27.2 26.5999 26.9 26.8999C26.6 27.4999 25.7 28.3999 25.4 28.3999V28.6999C25.15 28.9999 24.85 29.1999 24.85 29.4499C24.85 29.6499 25.65 29.4999 26.1 29.4499C28.8 28.8499 31.4 28.9999 34.4 28.6999C35.6 27.7999 36.65 30.3999 37.55 30.6999V31.6499C36.65 31.0499 35.2 31.9499 34.3 31.9499C31.9 31.9499 30.1 32.8499 27.7 32.5499C26.2 33.1499 24.4 33.4499 22.6 33.4499L22.9 33.1499C22.6 32.8499 22.3 32.8499 22 32.8499L21.7 33.1499L22 33.4499L19.6 33.1999C19.6 33.1999 19.65 32.7499 19.95 32.7499C19.65 32.1499 19.35 32.1499 19.05 32.4499C18.75 32.1499 18.8 31.4499 18.8 31.4499C20.9 29.9499 22.35 27.3499 24.15 26.1499V25.8499C25.95 24.0499 25.8 22.1999 27 20.3999C26.4 19.7999 27.3 18.5999 26.1 18.2999C25.8 18.8999 25.8 17.9999 25.2 17.9999C23.4 17.6999 22.9 18.5999 21.4 19.1999C20.8 18.5999 20.55 19.7999 19.65 20.0999L20.25 20.3999H19.35C19.35 20.3999 19.35 20.0499 19.05 20.0499C19.05 20.0499 18.75 20.0999 18.75 20.3999C19.05 20.6999 19.65 20.9499 19.65 21.2499V21.5499H19.05L19.35 21.2999L18.5 21.1499C18.4 21.0999 17.9 20.6999 17.85 20.2499L17.5 19.2999C17.6 18.8999 18.4 18.2499 18.4 17.9499C19.6 16.1499 22 15.5499 23.8 15.2499C24.1 15.2499 24.4 14.9499 24.7 14.6499C26.8 14.9499 29.6 15.3999 30.5 16.8999Z" fill="#54352F"/>
</svg>
